<svg width="272" height="272" viewBox="0 0 272 272" fill="none" xmlns="http://www.w3.org/2000/svg">
<path d="M151.354 22.5242L180.513 25.5162C180.651 25.5281 180.788 25.4869 180.897 25.401C181.006 25.315 181.077 25.1909 181.098 25.0538L181.315 23.517C181.335 23.3782 181.298 23.2374 181.214 23.1252C181.13 23.0131 181.005 22.9388 180.866 22.9186L151.599 20.0626C151.53 20.0551 151.459 20.0615 151.392 20.0814C151.325 20.1013 151.262 20.1343 151.208 20.1786C151.153 20.2229 151.108 20.2775 151.075 20.3393C151.042 20.4011 151.021 20.4688 151.014 20.5386L150.878 21.8986C150.865 21.9714 150.867 22.0463 150.884 22.1183C150.901 22.1903 150.933 22.258 150.978 22.3169C151.023 22.3759 151.079 22.4248 151.144 22.4605C151.209 22.4962 151.281 22.5179 151.354 22.5242ZM147.587 42.5434L180.023 46.1202C180.158 46.1362 180.294 46.1 180.402 46.019C180.511 45.9381 180.585 45.8186 180.608 45.685L180.907 44.0938C180.931 43.9533 180.899 43.8091 180.818 43.6921C180.736 43.5751 180.612 43.4947 180.472 43.4682L147.832 40.0682C147.762 40.0607 147.692 40.0671 147.625 40.087C147.557 40.1069 147.495 40.1399 147.44 40.1842C147.386 40.2285 147.341 40.2831 147.308 40.3449C147.275 40.4067 147.254 40.4744 147.247 40.5442L147.098 41.9042C147.086 41.9786 147.09 42.0545 147.109 42.1273C147.127 42.2002 147.16 42.2686 147.206 42.3283C147.252 42.388 147.309 42.4379 147.375 42.4748C147.44 42.5118 147.513 42.5351 147.587 42.5434ZM147.098 46.7866L168.735 49.1258C168.871 49.1381 169.007 49.0987 169.115 49.0156C169.224 48.9324 169.297 48.8116 169.32 48.677L169.551 47.317C169.575 47.1765 169.543 47.0323 169.462 46.9153C169.38 46.7983 169.256 46.7179 169.116 46.6914L147.356 44.3386C147.286 44.3311 147.216 44.3375 147.149 44.3574C147.081 44.3773 147.019 44.4103 146.964 44.4546C146.91 44.4989 146.865 44.5535 146.832 44.6153C146.799 44.6771 146.778 44.7448 146.771 44.8146L146.622 46.1746C146.61 46.2464 146.614 46.3198 146.632 46.3902C146.65 46.4607 146.682 46.5266 146.727 46.584C146.771 46.6414 146.827 46.689 146.891 46.7239C146.955 46.7587 147.025 46.7801 147.098 46.7866ZM144.935 58.4826L177.33 62.0594C177.471 62.071 177.61 62.0279 177.719 61.9392C177.828 61.8504 177.898 61.723 177.915 61.5834L178.038 59.9106C178.049 59.772 178.006 59.6345 177.917 59.5277C177.827 59.4208 177.7 59.3532 177.562 59.3394L145.194 56.0074C145.124 55.998 145.052 56.0029 144.984 56.0221C144.916 56.0412 144.853 56.0741 144.798 56.1188C144.743 56.1634 144.698 56.2188 144.666 56.2815C144.633 56.3442 144.614 56.4129 144.609 56.4834L144.459 57.8434C144.448 57.9168 144.451 57.9917 144.469 58.0637C144.487 58.1358 144.519 58.2036 144.563 58.2631C144.607 58.3226 144.663 58.3727 144.727 58.4104C144.791 58.4481 144.862 58.4727 144.935 58.4826ZM166.437 62.5626L144.677 60.2234C144.607 60.2159 144.537 60.2223 144.469 60.2422C144.402 60.2621 144.34 60.2951 144.285 60.3394C144.231 60.3837 144.186 60.4383 144.153 60.5001C144.119 60.5619 144.099 60.6296 144.092 60.6994L143.956 62.0594C143.947 62.1295 143.952 62.2007 143.971 62.2687C143.99 62.3368 144.023 62.4001 144.067 62.4549C144.112 62.5098 144.167 62.5548 144.23 62.5874C144.293 62.6199 144.362 62.6393 144.432 62.6442L166.056 64.9698C166.191 64.9858 166.326 64.9496 166.435 64.8686C166.544 64.7877 166.617 64.6682 166.641 64.5346L166.872 63.1746C166.884 63.1059 166.882 63.0355 166.866 62.9675C166.851 62.8995 166.822 62.8352 166.781 62.7784C166.741 62.7215 166.69 62.6732 166.631 62.6362C166.572 62.5992 166.506 62.5742 166.437 62.5626ZM150.742 27.3522L173.359 29.9226C173.494 29.9421 173.632 29.9073 173.741 29.8257C173.851 29.7441 173.924 29.6225 173.944 29.4874L174.243 27.8282C174.268 27.6897 174.237 27.5471 174.159 27.4305C174.08 27.3138 173.959 27.2322 173.822 27.2026L151.042 24.7546C150.972 24.7471 150.901 24.7535 150.834 24.7734C150.767 24.7933 150.704 24.8263 150.65 24.8706C150.596 24.9149 150.551 24.9695 150.517 25.0313C150.484 25.0931 150.464 25.1608 150.457 25.2306L150.266 26.7538C150.251 26.8961 150.293 27.0387 150.382 27.1508C150.471 27.2628 150.6 27.3352 150.742 27.3522Z" fill="black"/>
<path d="M140.815 73.0201C140.964 76.0257 141.386 83.5465 144.323 83.5465C147.261 83.5465 152.483 76.5153 153.748 74.8289C160.211 75.7452 166.749 76.0095 173.264 75.6177C179.874 75.0329 183.627 72.6937 185.436 68.0289C188.061 61.5961 191.393 35.6473 189.707 24.2369C188.823 18.2665 186.048 15.1929 180.187 13.6289C164.764 9.54887 140.23 9.22247 136.381 9.54887C130.302 10.0385 126.331 11.3985 124.032 16.8385C120.768 24.6449 118.715 41.9169 118.851 53.1505C118.932 57.4209 119.014 62.2625 121.666 65.7985C124.93 70.1369 132.26 71.6465 140.815 73.0201ZM120.034 53.0417C119.939 41.9985 121.951 24.6177 124.984 17.3417C127.106 12.2417 131.104 10.9089 136.476 10.5417C146.268 9.87527 169.007 11.8337 179.833 14.7713C185.273 16.2537 187.707 18.9601 188.496 24.4273C190.074 35.3073 186.769 61.5281 184.416 67.6345C182.839 71.9049 179.493 73.9993 173.223 74.6521C166.684 75.0758 160.118 74.8388 153.626 73.9449C153.505 73.9351 153.384 73.9548 153.273 74.0022C153.161 74.0496 153.063 74.1232 152.987 74.2169C151.749 75.7673 146.295 82.5945 144.337 82.3769C143.154 82.2681 142.283 78.6369 141.984 72.6665C141.983 72.5591 141.944 72.4556 141.874 72.3737C141.805 72.2918 141.709 72.2366 141.603 72.2177C128.194 69.8921 124.794 68.0561 122.563 65.0505C120.17 61.8273 120.102 57.1217 120.034 53.0417ZM116.28 125.462C118.575 125.708 120.892 125.274 122.942 124.215C124.993 123.155 126.687 121.517 127.814 119.503C128.941 117.489 129.451 115.188 129.282 112.886C129.112 110.584 128.27 108.383 126.86 106.556C125.45 104.729 123.534 103.356 121.351 102.608C119.167 101.861 116.812 101.771 114.578 102.351C112.344 102.931 110.329 104.154 108.785 105.869C107.24 107.584 106.233 109.715 105.89 111.998C105.688 113.564 105.796 115.155 106.209 116.679C106.621 118.204 107.33 119.632 108.295 120.882C109.26 122.133 110.462 123.181 111.832 123.966C113.202 124.752 114.714 125.26 116.28 125.462Z" fill="black"/>
<path d="M135.225 33.4854C133.705 33.4854 132.22 33.936 130.956 34.7803C129.692 35.6247 128.708 36.8247 128.126 38.2288C127.544 39.6329 127.392 41.1779 127.689 42.6684C127.985 44.159 128.717 45.5281 129.792 46.6028C130.866 47.6774 132.235 48.4092 133.726 48.7057C135.216 49.0022 136.761 48.85 138.166 48.2684C139.57 47.6869 140.77 46.702 141.614 45.4384C142.458 44.1747 142.909 42.6891 142.909 41.1694C142.909 39.1314 142.099 37.177 140.658 35.7359C139.217 34.2949 137.263 33.4854 135.225 33.4854ZM135.674 45.5214C135.406 45.2637 135.06 45.1025 134.691 45.0631C134.322 45.0237 133.95 45.1084 133.634 45.3038C133.478 45.42 133.282 45.4709 133.089 45.4455C132.896 45.4201 132.721 45.3205 132.6 45.1677C131.635 43.9165 135.171 42.6382 136.775 44.5421C136.84 44.6145 136.889 44.6988 136.921 44.7902C136.953 44.8816 136.966 44.9784 136.96 45.075C136.955 45.1716 136.93 45.2662 136.888 45.3533C136.846 45.4403 136.787 45.5183 136.714 45.5825C136.642 45.6468 136.558 45.6963 136.466 45.728C136.375 45.7597 136.278 45.7731 136.181 45.7674C136.085 45.7617 135.99 45.7371 135.903 45.6949C135.816 45.6526 135.738 45.5937 135.674 45.5214ZM137.714 42.883C136.975 42.2435 136.061 41.8417 135.09 41.7301C134.12 41.6185 133.138 41.8022 132.274 42.2573C132.185 42.302 132.087 42.3286 131.988 42.3357C131.888 42.3428 131.788 42.3302 131.693 42.2986C131.599 42.267 131.511 42.2171 131.436 42.1517C131.36 42.0863 131.298 42.0066 131.254 41.9173C131.209 41.8281 131.183 41.7308 131.175 41.6312C131.168 41.5317 131.181 41.4316 131.213 41.3369C131.244 41.2422 131.294 41.1546 131.359 41.0792C131.425 41.0038 131.505 40.942 131.594 40.8973C132.716 40.2784 134.004 40.0256 135.276 40.1743C136.549 40.3231 137.744 40.8659 138.693 41.727C138.846 41.8568 138.942 42.0422 138.958 42.2424C138.975 42.4427 138.911 42.6413 138.781 42.7945C138.652 42.9478 138.466 43.0433 138.266 43.0599C138.066 43.0764 137.867 43.0128 137.714 42.883ZM139.509 40.163C138.422 39.1304 137.041 38.4618 135.557 38.2498C134.072 38.0377 132.559 38.2929 131.227 38.9797C131.063 39.0522 130.878 39.0622 130.707 39.0078C130.536 38.9535 130.391 38.8386 130.299 38.6848C130.208 38.531 130.175 38.3489 130.208 38.1728C130.241 37.9966 130.337 37.8386 130.479 37.7285C132.081 36.904 133.898 36.5923 135.684 36.8356C137.47 37.0788 139.137 37.8654 140.461 39.0885C140.579 39.2217 140.645 39.3932 140.646 39.5712C140.647 39.7492 140.584 39.9215 140.467 40.0562C140.351 40.1909 140.19 40.2787 140.013 40.3033C139.837 40.328 139.658 40.2877 139.509 40.1901V40.163ZM133.62 57.4757L135.66 56.6053L133.987 54.8101L133.62 57.4757ZM132.94 62.4261L135.538 60.6853L133.416 58.9717L132.94 62.4261Z" fill="black"/>
<path d="M133.702 50.715C132.184 50.7257 130.704 51.1855 129.448 52.0364C128.191 52.8872 127.215 54.091 126.642 55.496C126.068 56.9009 125.924 58.4442 126.227 59.9311C126.529 61.4181 127.265 62.7822 128.342 63.8513C129.419 64.9205 130.788 65.647 132.277 65.9391C133.766 66.2312 135.308 66.0759 136.709 65.4927C138.11 64.9096 139.307 63.9247 140.149 62.6623C140.991 61.3999 141.44 59.9164 141.44 58.399C141.442 57.3848 141.243 56.3803 140.854 55.4437C140.465 54.507 139.894 53.6568 139.175 52.9422C138.455 52.2276 137.601 51.6628 136.661 51.2805C135.722 50.8982 134.716 50.706 133.702 50.715ZM137.047 56.903C136.898 57.6238 136.327 57.7054 134.708 58.3854L136.544 59.8406C136.764 60.0212 136.903 60.2815 136.931 60.5645C136.959 60.8475 136.874 61.13 136.694 61.3502C135.643 62.2015 134.524 62.9656 133.348 63.635C133.17 63.7507 132.962 63.813 132.75 63.8147C132.537 63.8163 132.329 63.7573 132.149 63.6444C131.969 63.5315 131.825 63.3695 131.734 63.1775C131.643 62.9855 131.608 62.7715 131.635 62.5606L132.056 59.487L129.703 60.4798C129.614 60.5173 129.518 60.5369 129.422 60.5373C129.325 60.5378 129.229 60.5192 129.139 60.4826C129.049 60.446 128.968 60.392 128.899 60.3239C128.83 60.2557 128.775 60.1747 128.738 60.0854C128.7 59.9961 128.681 59.9003 128.68 59.8034C128.68 59.7066 128.698 59.6106 128.735 59.5209C128.772 59.4313 128.826 59.3497 128.894 59.2809C128.962 59.212 129.043 59.1573 129.132 59.1198L131.852 57.9502L129.336 55.9102C129.211 55.7808 129.137 55.6097 129.13 55.4296C129.122 55.2494 129.181 55.0728 129.295 54.9333C129.41 54.7939 129.571 54.7013 129.749 54.6733C129.927 54.6453 130.11 54.6837 130.261 54.7814L132.437 56.5358L132.845 53.639C132.858 53.535 132.892 53.4347 132.945 53.344C132.997 53.2533 133.068 53.1739 133.151 53.1106C133.235 53.0473 133.33 53.0013 133.432 52.9752C133.533 52.9492 133.639 52.9437 133.743 52.959C134.151 52.959 134.042 52.959 136.748 55.9102C136.878 56.037 136.973 56.1945 137.026 56.3681C137.078 56.5417 137.085 56.7257 137.047 56.903ZM137.36 15.083C136.096 15.0829 134.852 15.3947 133.737 15.9907C132.622 16.5867 131.672 17.4486 130.97 18.4998C130.268 19.5511 129.836 20.7592 129.713 22.0173C129.589 23.2753 129.778 24.5444 130.263 25.7119C130.747 26.8795 131.512 27.9095 132.49 28.7106C133.468 29.5118 134.628 30.0594 135.868 30.3048C137.108 30.5502 138.389 30.4859 139.599 30.1176C140.808 29.7493 141.908 29.0884 142.8 28.1934C143.873 27.118 144.603 25.7489 144.898 24.2589C145.193 22.7689 145.039 21.225 144.457 19.8221C143.875 18.4192 142.89 17.2203 141.627 16.3768C140.364 15.5333 138.879 15.0831 137.36 15.083ZM140.23 19.7342L141.454 18.7686C141.588 18.6873 141.748 18.6583 141.902 18.6873C142.057 18.7162 142.195 18.801 142.291 18.9255C142.387 19.0499 142.434 19.2054 142.422 19.3621C142.411 19.5188 142.342 19.6658 142.229 19.775C140.869 20.8086 140.869 20.863 140.624 20.863C140.488 20.8746 140.352 20.8413 140.237 20.7683C140.121 20.6952 140.033 20.5865 139.985 20.4585C139.938 20.3306 139.933 20.1906 139.972 20.0598C140.011 19.929 140.092 19.8147 140.203 19.7342H140.23ZM137.428 17.0142C137.461 16.8576 137.551 16.7188 137.681 16.6253C137.81 16.5318 137.97 16.4903 138.129 16.5091C138.288 16.5279 138.434 16.6056 138.539 16.7268C138.643 16.848 138.698 17.0039 138.693 17.1638L138.503 18.7142C138.471 18.8728 138.38 19.0135 138.249 19.1078C138.117 19.2021 137.955 19.243 137.794 19.2223C137.634 19.2016 137.487 19.1208 137.384 18.9962C137.281 18.8716 137.228 18.7125 137.238 18.551L137.428 17.0142ZM131.648 22.6582C131.522 22.6432 131.403 22.5908 131.307 22.5078C131.21 22.4248 131.141 22.315 131.107 22.1923C131.074 22.0696 131.078 21.9397 131.118 21.8192C131.159 21.6987 131.234 21.5931 131.335 21.5158C131.607 21.2982 131.73 21.3798 133.348 21.5838C133.5 21.6139 133.636 21.6983 133.731 21.8212C133.825 21.9442 133.872 22.0972 133.862 22.252C133.852 22.4067 133.786 22.5525 133.677 22.6623C133.567 22.7721 133.421 22.8383 133.267 22.8486L131.648 22.6582ZM134.463 25.8406C133.103 26.8878 133.103 26.9286 132.859 26.9286C132.768 26.9314 132.678 26.9144 132.594 26.8788C132.511 26.8433 132.436 26.7901 132.376 26.7228C132.315 26.6555 132.269 26.5758 132.242 26.4893C132.215 26.4027 132.208 26.3113 132.219 26.2214C132.219 25.8678 132.396 25.8406 133.688 24.8614C133.819 24.7974 133.968 24.7801 134.11 24.8124C134.253 24.8447 134.38 24.9247 134.47 25.039C134.561 25.1533 134.609 25.2951 134.608 25.4409C134.607 25.5868 134.556 25.7278 134.463 25.8406ZM134.3 19.9382C133.226 18.5782 133.171 18.5782 133.212 18.2518C133.23 18.1288 133.283 18.0135 133.365 17.9201C133.447 17.8268 133.555 17.7594 133.674 17.7262C133.794 17.693 133.921 17.6954 134.039 17.7332C134.158 17.771 134.263 17.8425 134.341 17.939L135.307 19.163C135.364 19.296 135.374 19.4443 135.335 19.5837C135.297 19.7232 135.213 19.8456 135.096 19.9308C134.979 20.0161 134.837 20.0592 134.692 20.0531C134.548 20.047 134.41 19.9921 134.3 19.8974V19.9382ZM137.265 28.5198C137.25 28.6461 137.198 28.765 137.115 28.8614C137.032 28.9577 136.922 29.0272 136.799 29.0607C136.677 29.0943 136.547 29.0906 136.426 29.0499C136.306 29.0093 136.2 28.9336 136.123 28.8326C135.919 28.5606 135.987 28.4382 136.123 26.8198C136.128 26.7323 136.151 26.6467 136.191 26.5685C136.23 26.4902 136.285 26.421 136.353 26.365C136.42 26.3091 136.499 26.2676 136.583 26.2432C136.667 26.2188 136.756 26.212 136.843 26.2232C136.93 26.2345 137.013 26.2635 137.089 26.3084C137.164 26.3534 137.229 26.4134 137.28 26.4847C137.331 26.5559 137.367 26.6369 137.386 26.7227C137.404 26.8084 137.405 26.897 137.387 26.983L137.265 28.5198ZM137.265 25.2694C136.766 25.2685 136.278 25.1156 135.868 24.8312C135.457 24.5467 135.143 24.1441 134.967 23.6769C134.79 23.2096 134.76 22.6997 134.881 22.215C135.001 21.7302 135.266 21.2936 135.64 20.9629C136.014 20.6323 136.48 20.4233 136.976 20.3638C137.472 20.3042 137.974 20.3969 138.416 20.6296C138.858 20.8622 139.219 21.2238 139.451 21.6663C139.682 22.1088 139.774 22.6113 139.713 23.107C139.631 23.6799 139.35 24.2059 138.921 24.5935C138.491 24.9811 137.939 25.2059 137.36 25.2286L137.265 25.2694ZM140.257 27.6766C139.183 26.3166 139.128 26.3166 139.169 25.9902C139.18 25.8634 139.23 25.7431 139.312 25.6453C139.393 25.5475 139.502 25.4769 139.625 25.4429C139.748 25.4089 139.878 25.4131 139.998 25.455C140.118 25.4969 140.223 25.5745 140.298 25.6774L141.263 26.9014C141.301 27.0247 141.3 27.1564 141.261 27.2793C141.222 27.4021 141.147 27.5103 141.046 27.5897C140.944 27.6691 140.821 27.716 140.692 27.7242C140.564 27.7324 140.436 27.7016 140.325 27.6358L140.257 27.6766ZM142.909 24.1406L141.277 23.9502C141.154 23.9326 141.039 23.8796 140.945 23.7975C140.852 23.7154 140.785 23.6079 140.751 23.4881C140.718 23.3683 140.721 23.2415 140.759 23.1231C140.796 23.0046 140.868 22.8998 140.964 22.8214C141.25 22.5902 141.372 22.6718 142.977 22.8214C143.147 22.8214 143.309 22.8888 143.429 23.0086C143.549 23.1285 143.616 23.2911 143.616 23.4606C143.616 23.6301 143.549 23.7927 143.429 23.9126C143.309 24.0325 143.147 24.0998 142.977 24.0998L142.909 24.1406ZM261.909 209.06C266.941 204.341 265.771 197.201 263.16 190.89C268.083 184.784 260.903 157.625 233.159 140.257C211.263 126.576 192.1 129.867 173.699 125.746C171.999 118.946 166.777 103.061 159.787 103.551C160.385 97.7166 157.515 94.9966 150.933 91.1614C142.664 86.3334 123.407 81.5054 115.845 80.3766C103.129 78.4726 98.9811 82.9606 92.4803 93.8406C89.9643 92.5894 86.7547 90.9982 79.0299 87.8158C77.9827 83.2054 76.3099 80.3766 73.7395 78.9078C72.6787 77.8198 63.2811 71.4414 58.1131 68.123C41.6996 57.683 24.5866 48.3858 6.8955 40.2974C6.86523 40.2841 6.8322 40.2784 6.79923 40.2808C6.76627 40.2831 6.73437 40.2934 6.70628 40.3108C6.67818 40.3282 6.65473 40.3522 6.63794 40.3806C6.62115 40.4091 6.61153 40.4412 6.6099 40.4742C6.6099 41.0454 6.6099 41.2358 6.7187 41.3174C26.2755 51.0686 52.8227 65.2262 70.6387 78.0374C62.9683 76.8678 54.3187 86.0342 50.7963 90.155C23.8683 122.047 16.7555 180.037 32.6403 187.681C24.0088 187.773 15.3795 187.342 6.8003 186.389C6.77132 186.385 6.74184 186.387 6.71386 186.396C6.68588 186.404 6.66005 186.418 6.63812 186.438C6.61619 186.457 6.59868 186.481 6.58678 186.508C6.57487 186.534 6.56884 186.563 6.5691 186.593C6.5691 187.082 6.5691 187.273 6.7459 187.3C16.0931 188.38 25.5061 188.784 34.9115 188.51C37.8627 189.013 41.0043 187.925 44.8123 185.069C45.4243 185.151 48.8923 185.613 50.0075 185.736C43.5484 210.731 41.8187 236.714 44.9075 262.345C44.9075 262.576 45.1251 262.521 45.8051 262.521C47.0427 262.521 39.9843 233.961 50.5243 189.326C55.4339 168.545 63.2947 149.886 71.5363 139.537C73.664 136.615 76.3902 134.181 79.5331 132.397C89.6515 127.365 93.9083 144.174 94.7651 155.353C96.8867 182.159 88.1011 212.868 88.3867 213.929C88.4008 213.985 88.4263 214.039 88.4616 214.086C88.4969 214.132 88.5413 214.172 88.5921 214.201C88.6429 214.23 88.6991 214.249 88.7572 214.256C88.8154 214.263 88.8744 214.258 88.9307 214.241C110.024 208.421 131.621 191.883 145.303 171.061C145.373 170.958 145.407 170.833 145.398 170.708C144.799 153.028 146.173 106.788 159.569 104.68C166.015 103.605 171.034 120.129 172.625 126.521C176.705 143.889 176.8 166.533 173.074 193.801C172.992 194.399 174.053 194.317 174.148 193.801C176.223 180.914 177.201 167.875 177.072 154.823C201.09 164.901 193.827 211.453 192.114 220.715C192.005 221.286 192.984 221.313 193.093 220.715C194.238 215.113 195.023 209.444 195.446 203.742C206.326 215.982 203.837 240.843 199.227 256.429C199.091 256.877 199.839 257.081 199.988 256.633C201.324 252.341 202.351 247.96 203.062 243.522C206.367 249.057 207.264 255.857 207.468 262.304C207.472 262.355 207.495 262.404 207.533 262.439C207.571 262.475 207.62 262.494 207.672 262.494H208.162C208.216 262.494 208.268 262.473 208.306 262.434C208.344 262.396 208.366 262.344 208.366 262.29C208.434 257.012 207.55 251.764 205.755 246.8C210.528 250.173 214.513 255.041 218.919 256.143C225.896 257.829 226.223 248.826 224.06 241.972C221.027 231.486 213.602 221.341 206.516 213.099C211.401 214.728 216.055 216.981 220.361 219.804C229.84 225.761 235.851 232.765 240.72 238.368C244.8 243.128 250.92 250.757 256.632 248.813C257.476 248.5 258.247 248.018 258.898 247.396C259.548 246.773 260.064 246.024 260.413 245.195C262.507 240.925 261.528 234.628 260.059 230.126C265.894 226.114 264.86 216.662 261.909 209.06ZM81.8723 114.934C78.9347 121.734 78.1459 127.174 79.5331 131.254C76.7315 132.437 73.7259 134.994 70.5979 138.857C59.4051 152.783 52.6595 175.672 50.1979 185.097L28.2611 181.588C17.6803 159.025 36.8427 97.6078 61.3499 81.7366L92.0179 94.575C88.2304 101.152 84.8424 107.95 81.8723 114.934ZM93.7451 112.432C93.5991 112.319 93.4831 112.172 93.4072 112.003C93.3313 111.835 93.2979 111.65 93.3099 111.466C93.5221 109.544 94.0602 107.672 94.9011 105.931C94.9709 105.781 95.075 105.651 95.205 105.549C95.335 105.447 95.4872 105.378 95.6491 105.346C97.0696 105.118 98.5091 105.032 99.9467 105.088C100.749 105.088 100.45 104.109 102.939 101.334C103.415 100.804 102.83 100.627 101.742 96.6422C101.686 96.4315 101.697 96.2089 101.772 96.0045C101.848 95.8001 101.984 95.6239 102.163 95.4998C103.749 94.4319 105.403 93.4688 107.114 92.6166C107.267 92.5367 107.437 92.4951 107.61 92.4951C107.783 92.4951 107.953 92.5367 108.107 92.6166C111.425 94.5886 111.643 95.6494 112.377 95.4318C114.012 94.9777 115.699 94.7309 117.395 94.6974C118.266 94.6974 117.844 93.6774 120.115 90.4134C120.214 90.2794 120.343 90.1711 120.492 90.0977C120.641 90.0243 120.806 89.988 120.972 89.9918C122.92 90.0695 124.843 90.4551 126.671 91.1342C126.836 91.1922 126.984 91.2912 127.101 91.4221C127.217 91.5529 127.299 91.7113 127.337 91.8822C127.613 93.5498 127.75 95.2375 127.745 96.9278C127.745 97.6894 128.711 97.4582 131.458 99.9606C132.138 100.6 132.927 99.267 137.102 98.7094C137.267 98.6852 137.435 98.7024 137.592 98.7593C137.749 98.8163 137.889 98.9113 137.999 99.0358C139.279 100.458 140.318 102.079 141.073 103.837C141.141 103.996 141.169 104.17 141.154 104.343C141.14 104.516 141.084 104.683 140.991 104.829C139.922 106.313 138.725 107.701 137.415 108.977C136.898 109.508 137.591 109.861 137.782 113.166C137.783 113.292 137.821 113.414 137.891 113.518C137.961 113.622 138.06 113.703 138.176 113.751C139.897 114.394 141.528 115.253 143.031 116.308C143.159 116.405 143.263 116.53 143.333 116.674C143.404 116.818 143.441 116.977 143.439 117.137C143.372 119.009 142.962 120.853 142.229 122.577C142.164 122.736 142.063 122.876 141.933 122.988C141.802 123.099 141.648 123.177 141.481 123.217C139.488 123.582 137.469 123.787 135.443 123.829C134.79 123.829 134.994 124.522 132.94 126.793C132.342 127.473 133.634 128.153 134.3 132.614C134.319 132.774 134.301 132.935 134.247 133.086C134.192 133.237 134.104 133.374 133.987 133.485C132.588 134.762 130.965 135.772 129.2 136.463C129.048 136.524 128.884 136.548 128.721 136.534C128.558 136.52 128.401 136.467 128.262 136.381C126.744 135.358 125.324 134.197 124.019 132.913C123.475 132.397 123.026 133.185 119.395 133.389C118.47 133.389 118.973 134.668 116.321 138.19C116.22 138.317 116.092 138.42 115.946 138.491C115.8 138.562 115.64 138.598 115.478 138.598C113.597 138.478 111.754 138.018 110.038 137.238C109.886 137.178 109.75 137.082 109.641 136.959C109.532 136.836 109.454 136.69 109.412 136.531C109.068 134.874 108.863 133.19 108.8 131.499C108.793 131.387 108.758 131.279 108.698 131.184C108.639 131.089 108.557 131.011 108.46 130.955C104.761 128.942 104.639 127.664 103.809 128.045C102.45 128.762 100.999 129.293 99.4979 129.622C99.3216 129.659 99.1388 129.649 98.9673 129.594C98.7957 129.539 98.6413 129.441 98.5187 129.309C97.2995 127.95 96.3324 126.384 95.6627 124.685C95.6006 124.528 95.5769 124.359 95.5934 124.191C95.61 124.023 95.6664 123.862 95.7579 123.72C98.0155 120.456 99.2667 120.333 99.0083 119.504C97.8251 115.669 98.6139 114.744 97.7843 114.417C96.3677 113.909 95.0128 113.243 93.7451 112.432ZM89.5835 213.072C90.6171 208.91 91.4467 204.912 92.2083 201.09C97.2611 203.043 102.53 204.381 107.903 205.075C102.172 208.537 96.0137 211.235 89.5835 213.099V213.072ZM116.511 197.092C109.374 196.79 102.323 195.415 95.5947 193.012C94.7787 192.726 95.1051 191.257 95.9755 191.448C104.258 193.284 106.937 194.168 116.661 195.528C116.858 195.565 117.034 195.673 117.155 195.833C117.275 195.993 117.332 196.192 117.313 196.392C117.294 196.591 117.202 196.776 117.053 196.911C116.905 197.045 116.712 197.12 116.511 197.119V197.092ZM118.647 185.967C118.633 186.161 118.547 186.342 118.406 186.476C118.265 186.609 118.079 186.685 117.885 186.688C110.621 186.091 103.458 184.597 96.5603 182.241C96.3756 182.165 96.2273 182.021 96.1463 181.838C96.0652 181.656 96.0576 181.449 96.1251 181.261C96.3291 180.622 96.4515 180.663 98.6411 181.193C104.081 182.553 110.772 183.913 116.117 184.825C118.592 185.246 118.742 185.273 118.647 185.994V185.967ZM119.721 176.243C113.9 175.93 102.558 173.7 97.2131 171.401C96.4515 171.075 96.7779 169.647 97.6483 169.865C104.966 171.928 112.406 173.527 119.925 174.652C120.14 174.684 120.333 174.801 120.461 174.975C120.59 175.15 120.644 175.369 120.612 175.583C120.579 175.798 120.463 175.991 120.288 176.12C120.114 176.249 119.895 176.303 119.68 176.27L119.721 176.243ZM97.7027 157.312C105.692 159.827 113.809 161.915 122.019 163.568C122.223 163.599 122.407 163.708 122.531 163.873C122.655 164.038 122.71 164.245 122.683 164.45C122.656 164.654 122.551 164.84 122.388 164.968C122.226 165.095 122.021 165.154 121.815 165.132C113.398 163.997 105.144 161.87 97.2267 158.794C96.4243 158.468 96.8595 157.067 97.7027 157.312ZM144.16 170.599C137.53 180.529 129.374 189.351 119.993 196.738C119.993 185.749 123.883 172.136 131.485 156.251C131.498 156.219 131.503 156.184 131.5 156.149C131.497 156.115 131.486 156.082 131.467 156.052C131.448 156.023 131.423 155.999 131.393 155.981C131.363 155.964 131.329 155.954 131.295 155.952C129.554 155.952 127.337 157.108 117.096 154.197C109.875 152.13 104.326 151.355 96.9683 148.023C96.9683 148.023 96.3019 145.303 96.1251 144.677C100.936 146.844 105.946 148.539 111.085 149.737C123.855 153.137 132.437 156.686 141.005 146.459C148.24 137.714 143.004 134.015 144.16 170.599ZM259.76 229.256C254.511 213.833 238.803 198.411 227.651 192.794C227.6 192.767 227.545 192.751 227.488 192.746C227.431 192.742 227.374 192.75 227.32 192.769C227.266 192.788 227.217 192.819 227.175 192.858C227.134 192.898 227.101 192.945 227.079 192.998C226.563 194.032 228.725 193.352 237.497 200.669C243.318 205.66 257.19 218.988 260.128 234.669C261.188 240.109 260.195 243.332 259.502 244.76C259.215 245.476 258.784 246.125 258.233 246.666C257.683 247.207 257.027 247.627 256.306 247.901C251.192 249.642 245.276 242.053 241.74 237.892C236.926 232.207 230.86 225.135 221.068 219.029C212.609 213.738 205.673 211.753 205.143 212.365C204.612 212.977 218.743 227.529 223.068 242.393C224.985 248.309 225.298 256.741 219.151 255.205C214.486 254.008 209.549 247.752 205.183 245.44C204.654 244.298 204.03 243.202 203.32 242.162C205.184 229.052 204.952 211.78 195.65 202.341C196.588 187.041 195.419 160.481 177.099 153.572C176.98 144.547 175.923 135.559 173.944 126.753C192.427 131.064 211.344 128.113 232.56 141.223C246.296 149.723 261.882 166.601 263.609 183.546C263.732 184.675 263.976 188.347 262.793 190.033C258.332 180.173 248.404 169.742 240.816 164.479C240.408 164.193 239.932 164.846 240.326 165.145C250.023 172.217 266.982 190.618 264.207 203.157C263.833 205.076 262.885 206.836 261.488 208.203C256.51 195.963 245.616 183.723 236.64 176.828C236.246 176.529 235.715 177.113 236.083 177.453C242.291 182.392 247.831 188.116 252.566 194.481C264.847 211.195 265.472 224.523 259.76 229.256Z" fill="black"/>
</svg>
