<svg width="287" height="288" viewBox="0 0 287 288" fill="none" xmlns="http://www.w3.org/2000/svg">
<path d="M134.782 73.7099C134.961 73.7108 135.135 73.654 135.279 73.5479C135.423 73.4419 135.529 73.2922 135.582 73.121C135.628 72.5771 135.488 72.0337 135.186 71.5802C134.848 71.1021 134.468 70.7594 133.844 71.1251C132.936 71.6579 133.749 73.7099 134.782 73.7099Z" fill="black"/>
<path d="M137.061 71.2289C137.993 72.4017 139.039 73.4797 140.182 74.4473C138.994 75.127 138.499 75.3113 138.496 75.7865C138.504 75.9406 138.563 76.0875 138.664 76.2041C138.749 76.2804 138.852 76.3337 138.963 76.3589C139.074 76.3841 139.19 76.3804 139.299 76.3481C139.961 76.0491 140.594 75.6879 141.188 75.2695C141.314 75.183 141.417 75.0667 141.488 74.9309C141.558 74.795 141.595 74.6438 141.594 74.4905C141.582 73.9476 141.079 73.5775 140.81 73.3831C139.786 72.4889 138.834 71.4607 137.797 70.4614C137.668 70.3695 137.514 70.3193 137.356 70.3174C137.25 70.3174 137.147 70.351 137.061 70.4135C136.975 70.4761 136.911 70.5642 136.879 70.6654C136.846 70.7666 136.846 70.8756 136.878 70.9768C136.911 71.0781 136.975 71.1663 137.061 71.2289Z" fill="black"/>
<path d="M140.162 76.0108C139.525 76.3592 138.808 76.5313 138.083 76.5095C137.358 76.4877 136.652 76.2729 136.038 75.887C136.048 75.8024 136.04 75.7165 136.013 75.6355C135.986 75.5546 135.942 75.4806 135.883 75.4188C135.825 75.3571 135.753 75.3092 135.674 75.2786C135.595 75.248 135.51 75.2355 135.425 75.2419C135.108 75.2419 134.994 75.4017 134.382 75.9417C134.301 76.016 134.244 76.1121 134.217 76.2184C134.191 76.3246 134.195 76.4365 134.231 76.5401C134.266 76.6438 134.331 76.7349 134.417 76.8023C134.503 76.8696 134.607 76.9104 134.716 76.9195C135.19 79.8254 137.971 80.8564 139.72 79.2508C140.17 78.7223 139.594 77.8771 138.83 78.3868C138.572 78.6308 138.236 78.7742 137.881 78.7911C137.527 78.808 137.179 78.6973 136.899 78.479C136.466 78.1168 136.149 77.6344 135.989 77.0923C138.095 78.0455 140.554 77.291 140.858 76.6833C140.909 76.5865 140.928 76.4756 140.911 76.3674C140.893 76.2591 140.842 76.1594 140.763 76.0833C140.684 76.0073 140.583 75.9591 140.474 75.946C140.366 75.9329 140.256 75.9557 140.162 76.0108Z" fill="black"/>
<path d="M133.819 70.0494C134.766 69.9558 134.752 68.9435 134.155 68.8398C133.652 68.853 133.165 69.016 132.755 69.3081C132.345 69.6002 132.03 70.0081 131.852 70.48C131.819 70.569 131.811 70.6651 131.829 70.7582C131.846 70.8514 131.888 70.9382 131.95 71.0097C132.012 71.0811 132.091 71.1346 132.181 71.1645C132.271 71.1945 132.367 71.1997 132.459 71.1798C132.848 71.0891 132.727 70.7478 133.366 70.2942C133.506 70.193 133.658 70.1107 133.819 70.0494Z" fill="black"/>
<path d="M68.0431 118.119C68.6271 117.753 68.0531 116.722 67.449 117.098C64.5503 118.915 45.1204 131.007 38.3859 135.386C38.2613 135.482 38.1776 135.622 38.1513 135.778C38.1251 135.934 38.1583 136.094 38.2443 136.226C38.3302 136.358 38.4627 136.453 38.6153 136.492C38.7679 136.53 38.9293 136.51 39.0675 136.434C48.7897 130.573 58.3597 124.252 68.0431 118.119Z" fill="black"/>
<path d="M57.0769 88.2177C57.1504 88.2218 57.2239 88.2091 57.2918 88.1805C57.3597 88.1519 57.4202 88.1083 57.4688 88.0528C57.5175 87.9973 57.5529 87.9315 57.5725 87.8603C57.5921 87.7891 57.5954 87.7144 57.582 87.6417C57.5921 87.5729 57.5878 87.5028 57.5696 87.4357C57.5513 87.3686 57.5194 87.3061 57.4759 87.252C57.4323 87.1979 57.3781 87.1534 57.3166 87.1213C57.2551 87.0893 57.1877 87.0704 57.1185 87.0657C44.9826 86.3943 32.8135 86.6383 20.714 87.7958C20.5841 87.8145 20.4649 87.8787 20.3776 87.9772C20.2904 88.0756 20.2407 88.2019 20.2375 88.3336C20.2342 88.4653 20.2775 88.5939 20.3598 88.6966C20.442 88.7993 20.5579 88.8694 20.6868 88.8945C20.6868 88.8945 55.8658 88.2019 57.0769 88.2177Z" fill="black"/>
<path d="M60.7765 38.9133C60.847 38.9732 60.9297 39.017 61.0189 39.0414C61.108 39.0659 61.2014 39.0704 61.2925 39.0548C61.3836 39.0392 61.4702 39.0037 61.5461 38.9509C61.6221 38.8981 61.6856 38.8292 61.7322 38.7491C61.7738 38.6387 61.785 38.5191 61.7648 38.4029C61.7447 38.2866 61.6937 38.1779 61.6174 38.0881C56.6825 32.9027 51.317 27.6467 45.2312 22.0408C45.174 21.9879 45.1054 21.949 45.0307 21.9272C44.956 21.9055 44.8773 21.9014 44.8008 21.9154C44.7243 21.9293 44.652 21.9609 44.5897 22.0077C44.5275 22.0544 44.4769 22.1151 44.4419 22.1848C44.0315 23.0085 43.6369 21.616 60.7765 38.9133Z" fill="black"/>
<path d="M82.4449 18.6974C86.8604 27.1185 86.8001 27.1775 87.278 27.1775H87.4086C87.4998 27.1769 87.5891 27.1514 87.667 27.1038C87.7449 27.0562 87.8084 26.9883 87.8509 26.9072C87.8933 26.8262 87.913 26.7352 87.9079 26.6438C87.9028 26.5524 87.8731 26.4642 87.8219 26.3884C87.0843 24.7785 86.2046 23.2017 85.3551 21.6739C85.0781 21.1785 81.7776 15.0801 81.1721 13.9756C81.1241 13.885 81.0502 13.8109 80.96 13.7627C80.8697 13.7144 80.7672 13.6943 80.6655 13.7049C80.5793 13.7054 80.4947 13.728 80.4198 13.7707C80.3448 13.8133 80.282 13.8746 80.2374 13.9485C80.1927 14.0225 80.1678 14.1067 80.1648 14.1932C80.1619 14.2796 80.1811 14.3653 80.2207 14.4422C80.9525 15.8591 81.7016 17.279 82.4449 18.6974Z" fill="black"/>
<path d="M153.386 29.3332C154.146 29.0351 153.084 29.6788 158.552 7.37461C158.571 7.27048 158.562 7.16292 158.525 7.06378C158.487 6.96464 158.423 6.87776 158.34 6.8127C158.257 6.74764 158.157 6.70692 158.052 6.69504C157.947 6.68315 157.841 6.70056 157.745 6.74533C157.59 6.82213 157.471 6.95711 157.414 7.12117C155.465 14.2537 153.892 21.4844 152.701 28.7831C152.686 28.8716 152.695 28.9627 152.726 29.0467C152.758 29.1307 152.812 29.2047 152.882 29.2609C152.952 29.317 153.035 29.3534 153.124 29.3661C153.212 29.3788 153.303 29.3674 153.386 29.3332Z" fill="black"/>
<path d="M204.8 46.5481C206.383 44.463 208.226 42.5902 210.283 40.9753C210.283 40.9753 226.58 26.63 229.722 23.8134C230.26 23.3483 229.736 22.3979 228.898 22.8817C225.995 25.3888 209.215 40.3057 209.215 40.3057C207.191 41.9074 205.394 43.7783 203.873 45.867C203.793 46.0051 203.768 46.1685 203.802 46.3245C203.837 46.4804 203.93 46.6174 204.061 46.708C204.185 46.7624 204.323 46.7763 204.456 46.7476C204.589 46.7189 204.709 46.6491 204.8 46.5481Z" fill="black"/>
<path d="M220.951 69.2238C220.762 69.2944 220.683 69.4931 220.625 69.7235C220.603 69.8129 220.605 69.9069 220.632 69.9951C220.659 70.0833 220.709 70.1624 220.778 70.2238C220.847 70.2851 220.931 70.3264 221.021 70.343C221.112 70.3597 221.205 70.3511 221.291 70.3182C231.569 66.3856 233.372 66.1149 238.02 64.5136C238.161 64.443 238.274 64.3268 238.34 64.1838C238.382 64.0867 238.395 63.9801 238.38 63.8756C238.365 63.7711 238.322 63.6728 238.255 63.5913C238.188 63.5099 238.1 63.4485 238.001 63.4138C237.902 63.3791 237.795 63.3725 237.692 63.3947C233.634 64.5107 224.85 67.7536 220.951 69.2238Z" fill="black"/>
<path d="M266.431 118.511C266.098 118.38 221.713 116.716 218.447 116.783C218.359 116.785 218.273 116.81 218.198 116.856C218.123 116.902 218.061 116.967 218.019 117.044C217.976 117.121 217.955 117.208 217.957 117.296C217.958 117.385 217.983 117.471 218.028 117.546C218.067 117.638 218.131 117.716 218.212 117.773C218.293 117.829 218.389 117.862 218.487 117.866C222.723 118.01 264.232 119.685 266.207 119.685C266.346 119.682 266.481 119.632 266.588 119.541C266.694 119.451 266.767 119.327 266.793 119.189C266.819 119.052 266.798 118.909 266.732 118.786C266.666 118.662 266.559 118.565 266.431 118.511Z" fill="black"/>
<path d="M249.899 148.26C249.779 148.116 250.462 148.461 238.596 142.971C239.25 141.796 239.927 140.631 240.626 139.476C240.679 139.333 240.682 139.177 240.637 139.032C240.592 138.888 240.5 138.762 240.376 138.675C240.252 138.588 240.103 138.544 239.952 138.551C239.8 138.558 239.656 138.615 239.54 138.712L234.64 141.274C225.599 137.036 217.289 133.392 209.275 130.146C206.007 128.827 197.34 125.394 197.311 125.375L197.299 125.397C196.776 125.244 196.725 125.358 196.614 125.633C196.413 126.133 196.441 126.123 198.442 126.94C190.529 142.3 183.087 154.691 174.298 172.777C172.988 173.39 171.921 174.426 171.267 175.719C170.382 177.973 172.622 177.986 162.657 134.554C158.863 118.014 159.159 118.943 158.963 118.781C158.878 118.71 158.775 118.664 158.666 118.648C158.556 118.631 158.444 118.645 158.342 118.688C158.342 118.688 151.425 119.954 148.908 120.476C148.693 118.779 148.897 117.055 149.504 115.456C149.602 115.548 149.728 115.604 149.862 115.615C149.996 115.626 150.13 115.591 150.241 115.517C152.628 114.17 154.83 112.517 156.792 110.599C157.825 109.706 158.702 108.645 159.387 107.462C159.696 106.337 159.55 105.136 158.981 104.119C158.019 101.369 156.868 98.6889 155.537 96.0986C170.665 86.5084 183.917 74.2228 194.64 59.848C195.036 59.897 197.562 60.2109 197.74 60.2109C198.987 60.2109 199.505 59.0114 198.76 58.2654C199.294 58.2482 200.122 58.133 200.281 57.3482C200.317 57.13 200.286 56.906 200.19 56.7066C200.095 56.5072 199.941 56.3421 199.749 56.2336C199.819 56.1224 199.867 55.9981 199.888 55.8681C199.91 55.7382 199.906 55.6052 199.875 55.477C199.845 55.3488 199.789 55.2281 199.712 55.1218C199.634 55.0156 199.536 54.926 199.423 54.8584C198.486 54.285 197.386 54.0399 196.295 54.1614C196.424 54.0372 196.52 53.883 196.575 53.7126C196.629 53.5421 196.642 53.3607 196.61 53.1844C196.578 53.0081 196.503 52.8425 196.392 52.7022C196.281 52.5619 196.137 52.4512 195.974 52.3802C195.538 52.2411 195.065 52.2793 194.658 52.4867C193.206 52.928 191.947 53.8511 191.087 55.1046C190.499 55.2242 178.709 60.6746 170.997 64.8534C163.377 68.9891 146.331 79.3672 139.723 83.5331C139.634 83.3171 139.531 83.0594 139.472 82.8707C139.787 82.7764 140.097 82.6639 140.4 82.5338C143.308 80.8317 144.239 77.0229 143.613 73.9082C143.569 73.6734 143.498 73.4474 143.448 73.2141C144.217 72.1782 144.844 71.044 145.314 69.8416C145.377 69.2334 145.32 68.6186 145.145 68.0327C144.97 67.4469 144.681 66.9017 144.295 66.4288C144.024 66.0769 143.873 65.6467 143.864 65.2019C143.965 64.3192 145.443 63.4898 144.438 61.6768C144.101 61.0531 143.649 60.4995 143.105 60.0453C141.231 58.0681 138.925 56.5547 136.368 55.6245C133.99 54.7721 131.391 54.7721 129.014 55.6245C127.965 56.1945 126.953 56.8289 125.983 57.5238C125.017 58.0183 124.003 58.4102 122.956 58.6931C121.754 59.188 120.7 59.9847 119.893 61.0068C119.087 62.0289 118.556 63.242 118.351 64.5294C117.877 67.1776 119.017 69.7134 118.7 72.3054C118.449 74.3474 116.203 75.6678 114.039 76.6902C113.322 76.9612 112.632 77.2987 111.977 77.6982C93.1558 71.3622 75.9085 66.3309 65.1259 63.5675C64.9834 63.5065 64.8229 63.5034 64.6782 63.5589C64.1597 62.6152 63.4763 61.7728 62.6606 61.072C62.485 60.9521 62.2824 60.8782 62.0711 60.857C61.8598 60.8359 61.6465 60.8682 61.4509 60.951C60.8066 61.2837 60.9371 62.116 61.1337 62.8144C60.0572 62.3466 58.8662 62.2112 57.7127 62.4256C57.5573 62.4533 57.4116 62.5202 57.2891 62.6201C57.1667 62.7199 57.0715 62.8494 57.0127 62.9963C56.9538 63.1432 56.9332 63.3027 56.9527 63.4599C56.9723 63.617 57.0313 63.7665 57.1243 63.8944C56.8999 63.9495 56.6981 64.0736 56.5472 64.2492C56.3963 64.4248 56.3038 64.6433 56.2825 64.8742C56.2611 65.1051 56.3121 65.3369 56.4283 65.5374C56.5445 65.7378 56.7201 65.8969 56.9306 65.9925C56.7185 66.1775 56.5832 66.4356 56.5516 66.7158C56.52 66.9961 56.5943 67.278 56.7599 67.5059C57.562 68.6666 58.6727 67.8256 62.2129 69.7682C62.1999 69.8502 62.1712 69.9222 62.1583 70.0043C62.1583 71.6143 63.5187 72.4869 64.6107 73.1896C75.9272 80.4731 86.4586 87.1403 104.73 97.167C103.224 100.469 101.559 103.738 99.7611 106.886C99.6985 107.009 99.6761 107.149 99.6973 107.286C99.7184 107.423 99.7819 107.55 99.8787 107.649C104.253 111.231 109.047 114.262 114.156 116.675C114.992 117.235 115.942 117.601 116.937 117.748C117.338 117.756 117.728 117.616 118.034 117.356C118.178 117.187 118.297 117.006 118.426 116.829C118.468 116.846 118.511 116.859 118.552 116.876C118.729 120.855 116.594 124.055 114.509 127.483C100.823 130.463 86.9967 133.664 73.3241 137.033C73.1758 137.1 73.0568 137.219 72.9892 137.367C72.9216 137.516 72.9101 137.684 72.9567 137.84C76.5126 147.479 79.7514 157.257 83.1452 167.197C83.0017 167.14 48.6923 153.582 42.3725 151.891C41.5704 151.049 40.1512 152.558 41.3853 152.856C52.8911 169.059 65.1761 190.554 81.4218 217.944C75.9654 216.879 70.3213 217.357 65.1202 219.325C61.0118 220.918 56.4772 224.581 57.2277 229.669C57.9638 234.709 63.4627 237.386 67.5726 239.193C73.3805 241.669 78.934 244.707 84.154 248.265C89.2364 251.906 93.1589 256.947 95.4475 262.777C95.3301 262.847 95.2407 262.955 95.1949 263.084C94.3827 265.592 92.7123 273.263 92.0752 276.161C91.6776 277.575 91.3973 279.02 91.2372 280.481C91.2386 280.628 91.2936 280.771 91.392 280.881C91.4904 280.991 91.6254 281.062 91.7718 281.08C91.9182 281.097 92.066 281.061 92.1876 280.977C92.3092 280.893 92.3963 280.768 92.4325 280.624C92.8557 279.2 93.1785 277.748 93.3983 276.279C93.7025 274.85 95.8464 265.559 96.1248 264.314C118.654 273.164 142.953 274.408 166.796 269.28C168.233 269.153 169.633 268.752 170.92 268.098C171.248 269.05 175.548 280.855 175.548 280.855C175.606 281.019 175.727 281.152 175.884 281.226C176.04 281.301 176.22 281.31 176.383 281.251C176.546 281.192 176.679 281.071 176.753 280.914C176.827 280.757 176.836 280.576 176.778 280.413C176.778 280.413 172.412 268.562 171.811 267.124C172.259 266.441 172.512 265.647 172.54 264.829C173.305 260.478 174.967 256.335 177.419 252.665C179.871 248.995 183.06 245.879 186.781 243.517C196.09 237.594 202.676 236.084 213.003 232.495C215.9 231.624 218.726 230.529 221.455 229.221C225.72 227.128 229.749 222.819 227.314 218.042C224.945 213.392 218.067 211.545 212.693 211.803C211.813 211.853 210.938 211.957 210.071 212.114C224.392 191.69 235.396 170.498 249.902 149.056C249.995 148.944 250.045 148.803 250.044 148.657C250.044 148.512 249.993 148.371 249.899 148.26ZM199.608 127.583C199.752 127.583 212.465 132.673 218.876 135.458C221.925 136.783 231.627 141.148 233.381 141.928L176.226 171.791C182.506 159.071 199.517 127.727 199.608 127.583ZM171.175 180.239C171.255 180.167 171.319 180.078 171.362 179.978C171.405 179.879 171.427 179.772 171.425 179.663C171.425 179.604 171.408 179.544 171.401 179.485C172.174 176.906 172.454 175.14 174.771 173.975C177.281 172.714 238.105 140.884 238.25 140.808C234.737 147.137 231.682 153.71 229.106 160.478C228.389 162.241 206.981 213.569 205.859 215.781C204.667 217.833 202.181 218.821 200.091 219.976C181.856 230.069 164.017 239.651 146.541 250.539C155.953 227.249 163.785 204.248 171.18 180.241L171.175 180.239ZM133.811 121.983C133.926 122.348 134.118 122.683 134.375 122.967C134.632 123.25 134.946 123.474 135.297 123.624C133.297 123.813 131.283 123.794 129.286 123.568C127.413 123.177 125.56 122.691 123.736 122.114L124.407 118.685C127.594 119.424 130.849 119.828 134.119 119.889C133.791 120.534 133.683 121.27 133.811 121.983ZM139.338 121.502C139.68 121.464 140.019 121.409 140.354 121.336C140.055 121.719 139.673 122.028 139.238 122.241C138.802 122.454 138.324 122.565 137.839 122.566C137.13 122.652 135.811 122.815 135.287 122.18C135.06 121.827 134.956 121.408 134.993 120.99C135.029 120.571 135.203 120.177 135.488 119.869C136.862 119.841 138.231 119.703 139.582 119.457C139.604 119.457 139.625 119.486 139.647 119.487C139.927 119.52 140.183 119.659 140.364 119.876L139.216 120.072C139.039 120.102 138.879 120.198 138.769 120.34C138.659 120.483 138.606 120.662 138.621 120.842C138.636 121.022 138.718 121.19 138.851 121.312C138.983 121.434 139.157 121.502 139.337 121.502H139.338ZM133.897 149.956C134.009 149.512 134.375 148.414 134.784 148.191C136.556 140.193 137.843 133.4 136.488 125.555C136.456 125.367 136.499 125.173 136.609 125.017C136.719 124.861 136.886 124.755 137.073 124.722C137.261 124.69 137.454 124.733 137.609 124.843C137.765 124.953 137.871 125.121 137.903 125.309C138.414 128.679 138.574 132.093 138.38 135.496C138.837 135.215 139.226 134.835 139.518 134.383C139.809 133.932 139.995 133.42 140.063 132.886C140.233 130.296 140.084 127.695 139.62 125.142C139.601 125.048 139.601 124.951 139.62 124.857C139.639 124.764 139.676 124.674 139.73 124.595C139.783 124.516 139.852 124.448 139.932 124.396C140.012 124.344 140.102 124.308 140.196 124.291C140.29 124.274 140.386 124.276 140.48 124.297C140.573 124.318 140.661 124.358 140.739 124.413C140.816 124.469 140.882 124.539 140.933 124.62C140.983 124.702 141.017 124.792 141.032 124.887C141.529 127.593 141.681 130.351 141.482 133.095C141.363 134.009 140.996 134.872 140.422 135.591C139.847 136.309 139.087 136.856 138.223 137.17C137.847 140.347 136.988 144.709 136.266 148.087C136.306 148.097 136.345 148.11 136.384 148.124C136.991 148.368 137.065 150.209 137.203 150.833C139.904 163.306 141.835 167.105 152.715 195.503C150.207 196.367 152.41 195.781 137.648 201.417C134.903 202.466 125.149 205.946 123.044 206.718C122.141 204.762 117.536 194.766 116.107 191.694C118.087 187.724 124.759 172.282 125.676 170.038C128.9 162.154 124.723 172.738 133.897 149.956ZM141.337 119.078C142.359 118.811 143.363 118.481 144.344 118.089L144.5 121.526C143.285 121.958 142.072 122.356 140.867 122.668C141.396 122.25 141.742 121.64 141.83 120.969C141.918 120.298 141.741 119.62 141.337 119.078ZM153.123 196.573C155.151 201.858 157.201 207.137 159.324 212.387C159.395 212.714 153.417 229.51 145.097 251.181C137.668 238.169 130.236 222.271 123.482 207.665C131.552 204.984 150.65 197.711 153.123 196.573ZM157.467 120.014C157.637 119.96 157.81 119.916 157.985 119.88C158.119 120.237 158.223 120.604 158.296 120.977C163.268 143.187 167.797 161.031 170.063 179.139C169.875 179.734 169.726 180.333 169.561 180.93C169.414 177.029 168.921 173.149 168.086 169.336C164.175 149.896 159.243 138.548 152.833 128.504C151.213 126.409 149.956 124.055 149.115 121.54C149.647 121.45 156.954 120.167 157.467 120.014ZM149.901 127.819C150.021 127.762 150.151 127.732 150.283 127.73C150.415 127.728 150.546 127.755 150.666 127.809C150.803 127.879 150.913 127.991 150.981 128.129C151.05 128.266 151.072 128.422 151.046 128.574C151.019 128.725 150.945 128.864 150.834 128.971C150.723 129.077 150.582 129.144 150.429 129.164C146.463 130.443 144.308 128.133 143.553 124.131C143.518 123.943 143.558 123.749 143.666 123.592C143.773 123.434 143.938 123.325 144.126 123.29C144.313 123.255 144.506 123.295 144.663 123.403C144.82 123.511 144.928 123.677 144.964 123.865C145.548 126.962 146.915 128.8 149.901 127.819ZM147.64 120.266C147.006 120.554 146.373 120.826 145.74 121.075C145.822 120.643 145.817 120.871 145.434 117.64C146.269 117.263 147.084 116.841 147.874 116.377C147.556 117.647 147.476 118.966 147.64 120.266ZM157.289 103.247C157.794 104.23 158.139 105.288 158.31 106.38C158.31 107.293 157.183 108.285 156.535 108.989C154.748 110.919 152.701 112.588 150.454 113.95C150.429 113.806 149.403 108.425 149.373 108.278C149.422 108.134 151.065 94.0221 150.246 89.7842C153.126 93.9702 155.491 98.4906 157.289 103.247ZM195.002 53.8547C193.844 54.7605 193.805 54.5819 193.69 54.8627C193.646 54.9879 193.639 55.1233 193.669 55.2525C193.7 55.3818 193.767 55.4994 193.863 55.5914C193.941 55.6573 194.034 55.7045 194.133 55.7294C194.233 55.7544 194.336 55.7564 194.437 55.7354C195.132 55.5505 195.855 55.4882 196.572 55.551C196.28 55.59 195.992 55.6541 195.711 55.7426C195.555 55.7853 195.42 55.8847 195.332 56.0216C195.245 56.1585 195.212 56.323 195.239 56.4833C195.265 56.6436 195.351 56.7881 195.478 56.8889C195.605 56.9896 195.765 57.0394 195.926 57.0285C196.561 56.9399 197.205 56.9399 197.84 57.0285C198.117 57.0357 197.932 57.0414 195.975 57.1149C194.857 56.8614 194.639 58.323 195.544 58.4354C196.027 58.5237 196.503 58.6478 196.968 58.8069C196.583 58.7622 194.896 58.5477 194.424 58.4973C193.76 57.4964 192.996 56.567 192.142 55.7238C192.914 54.8609 193.901 54.2193 195.002 53.8648V53.8547ZM182.675 60.3189C182.819 60.2498 190.962 56.4107 191.107 56.4669C191.975 57.3898 192.748 58.3981 193.413 59.4765C193.215 59.7347 193.002 59.9822 192.778 60.2181C182.296 73.9503 169.475 85.713 154.908 94.9624C153.767 92.8306 152.506 90.7661 151.13 88.779C151.067 88.6871 150.981 88.6131 150.88 88.5645C150.78 88.5159 150.669 88.4942 150.558 88.5016C150.447 88.509 150.34 88.5452 150.247 88.6067C150.154 88.6683 150.078 88.7529 150.028 88.8525C149.714 87.3278 149.012 85.9105 147.99 84.7384C146.969 83.5664 145.663 82.6794 144.199 82.1637C156.573 74.5634 169.37 66.7082 182.675 60.3189ZM142.782 83.0349C147.868 83.4943 149.29 89.3709 149.326 92.7808C149.326 95.0704 149.158 96.4327 148.524 104.397C147.303 98.807 145.698 93.3084 143.719 87.941C143.328 86.4059 142.569 84.99 141.508 83.8168L142.782 83.0349ZM139.516 84.9659C139.833 84.8709 139.788 84.8723 140.483 84.4461C141.766 85.9643 142.666 87.77 143.107 89.7107C143.653 91.4214 144.599 94.0307 145.908 98.8216C147.275 103.83 148.356 108.914 149.144 114.047C145.057 116.981 140.183 118.608 135.16 118.715C125.927 118.931 119.702 115.753 119.029 115.904C120.607 113.33 121.998 110.645 123.19 107.869C126.255 100.776 128.026 93.1873 128.417 85.4656C128.458 85.3749 128.595 85.0566 128.622 84.9875C138.53 88.6883 128.932 85.0926 135.332 87.4989C135.394 87.5245 135.461 87.5374 135.528 87.5367C135.595 87.536 135.662 87.5217 135.723 87.4948C135.785 87.4678 135.841 87.4287 135.887 87.3798C135.933 87.3309 135.969 87.2731 135.993 87.2099C136.017 87.1467 136.027 87.0794 136.025 87.012C136.022 86.9446 136.006 86.8784 135.977 86.8174C135.948 86.7564 135.907 86.7018 135.857 86.6568C135.807 86.6119 135.749 86.5775 135.685 86.5557C129.945 84.3957 130.789 84.737 130.493 84.5325C130.473 84.3772 130.443 84.2233 130.404 84.0717C130.404 84.027 130.383 83.9939 130.377 83.9522C131.851 84.7988 133.494 85.3073 135.187 85.4411C136.165 85.6412 137.163 85.7315 138.162 85.7104C138.429 85.7022 138.69 85.6305 138.924 85.501C139.158 85.3716 139.358 85.1882 139.508 84.9659H139.516ZM122.56 121.732C121.53 121.403 120.529 120.986 119.57 120.485C119.844 119.466 119.927 118.405 119.812 117.356C120.896 117.737 121.996 118.067 123.113 118.357C122.539 121.052 122.481 121.103 122.56 121.732ZM124.414 75.0314C124.931 73.2141 127.81 74.7031 127.952 76.1157C127.942 76.5136 128.026 76.9081 128.196 77.2677C128.437 77.6104 128.646 77.5341 129.17 78.1605C129.58 78.6501 130.318 79.5328 130.54 78.9338C130.751 78.072 130.673 77.1646 130.318 76.3518C130.351 75.6836 130.607 75.0459 131.045 74.5418C132.136 72.893 131.012 70.7747 132.117 69.2066C133.331 67.6658 134.336 68.1107 135.96 66.6448C136.234 66.3935 136.433 66.0722 136.538 65.7154C136.643 65.3586 136.648 64.9799 136.554 64.6202C137.663 65.2384 138.68 66.009 139.577 66.9098C139.635 67.0019 139.693 67.0955 139.749 67.1891H139.73C139.295 67.251 138.9 67.4796 138.629 67.827C138.272 68.285 138.916 68.979 139.347 68.6666C139.497 68.5271 139.68 68.428 139.878 68.3786C140.051 68.3395 140.232 68.347 140.402 68.4002H140.417C140.594 68.7486 140.766 69.1 140.921 69.46C140.824 69.3432 140.699 69.2534 140.557 69.1989C140.416 69.1444 140.263 69.1272 140.113 69.1488C139.963 69.1705 139.821 69.2303 139.7 69.3226C139.58 69.4148 139.485 69.5365 139.424 69.676C139.338 70.0373 139.357 70.4161 139.481 70.7664C139.605 71.1166 139.828 71.4232 140.122 71.6488C140.249 71.7638 140.408 71.836 140.578 71.8554C140.747 71.8748 140.919 71.8404 141.068 71.7571C141.217 71.6737 141.337 71.5455 141.41 71.3905C141.483 71.2355 141.506 71.0615 141.475 70.8928C142.419 73.672 142.92 77.1755 141.485 79.6466C141.17 80.2026 140.74 80.6842 140.224 81.0588C139.707 81.4335 139.117 81.6924 138.492 81.8181C138.403 81.8414 138.319 81.8826 138.246 81.9392C138.173 81.9957 138.113 82.0665 138.068 82.1472C138.023 82.2279 137.995 82.3169 137.985 82.4088C137.975 82.5007 137.984 82.5937 138.011 82.6821C138.272 83.451 138.441 83.8787 138.585 84.3078C138.327 84.5411 137.476 84.4648 137.006 84.4216C134.606 84.3776 132.253 83.7427 130.154 82.5726C129.945 82.4546 130.07 82.7368 129.829 81.8627C129.692 81.1932 129.5 80.5362 129.255 79.8986C129.177 79.7315 128.894 78.8186 128.25 79.2247C127.684 79.308 127.106 79.2104 126.598 78.9458C126.09 78.6811 125.678 78.2628 125.42 77.7501C125.061 77.4012 124.784 76.9758 124.61 76.5053C124.436 76.0348 124.369 75.5312 124.414 75.0314ZM126.904 88.4608C126.271 94.6075 124.746 100.628 122.378 106.333C122.583 99.2594 122.163 96.041 122.215 93.2286C124.32 92.2885 125.995 90.5859 126.904 88.4608ZM62.5171 68.475C61.4812 67.9256 60.375 67.5215 59.2295 67.2741C58.8055 67.1963 58.3899 67.0781 57.9882 66.9213C58.6261 66.872 59.2676 66.9403 59.881 67.1229C59.9978 67.1475 60.1192 67.1388 60.2313 67.0975C60.3434 67.0563 60.4417 66.9843 60.515 66.8897C60.5883 66.7952 60.6336 66.6818 60.6459 66.5627C60.6581 66.4435 60.6367 66.3233 60.5841 66.2157C60.5708 66.1203 60.5304 66.0308 60.4679 65.9578C60.4053 65.8848 60.3231 65.8313 60.2311 65.8038C59.9229 65.7108 59.6082 65.6406 59.2898 65.5936L57.8662 65.1184C58.1826 65.0751 58.5046 65.1027 58.809 65.199C59.3311 65.2989 59.8456 65.4351 60.3488 65.6066C61.1883 65.8946 61.3935 64.5496 60.7563 64.3206C60.2388 64.1744 59.7483 63.9449 59.3041 63.641C60.2321 63.7481 61.1116 64.1143 61.8426 64.6979C61.9363 64.8223 62.0725 64.9074 62.2251 64.9369C62.3776 64.9664 62.5356 64.9381 62.6686 64.8576C62.8017 64.7771 62.9002 64.65 62.9454 64.5009C62.9905 64.3517 62.979 64.1911 62.9131 64.0499C62.6835 63.5039 62.4941 62.9418 62.3463 62.368C62.9767 63.1289 63.5116 63.9646 63.9392 64.8563L63.1126 67.0163C62.8731 67.4847 62.6738 67.9727 62.5171 68.475ZM118.463 114.258C118.119 114.849 117.478 116.335 116.925 116.456C116.324 116.588 114.606 115.559 113.884 115.216C109.566 113.132 105.496 110.566 101.751 107.567C101.223 107.207 101.114 107.06 101.09 107.119C102.865 104.111 104.447 100.992 105.825 97.7819C105.936 97.841 106.045 97.9058 106.157 97.9634C106.306 98.0392 106.479 98.053 106.638 98.0018C106.797 97.9506 106.929 97.8384 107.006 97.6898C107.083 97.5454 107.1 97.3763 107.052 97.2197C107.005 97.0632 106.898 96.9318 106.754 96.8546C91.1123 88.4479 80.1159 81.7907 65.2048 72.209C63.8588 71.345 63.1255 70.7618 63.5646 69.473C64.0211 67.9262 64.6103 66.422 65.3254 64.9773C65.4689 65.0018 80.6655 69.2699 82.3631 69.7667C94.8892 73.3408 102.74 75.9702 110.633 78.6213C110.022 78.9732 109.502 79.4635 109.114 80.053C108.725 80.6426 108.48 81.3151 108.397 82.0168C108.319 83.7549 110.023 85.745 108.827 87.2296C108.017 88.2606 106.244 88.0936 105.168 88.9576C104.829 89.3186 104.58 89.7544 104.439 90.2298C104.299 90.7053 104.272 91.2071 104.36 91.695C104.448 92.1829 104.65 92.6432 104.947 93.0389C105.245 93.4346 105.632 93.7546 106.075 93.9731C106.094 93.9886 106.118 93.9958 106.143 93.9933C106.167 93.9907 106.19 93.9785 106.205 93.9595C106.22 93.9404 106.228 93.9159 106.225 93.8915C106.222 93.867 106.21 93.8446 106.191 93.8291C105.665 93.2287 106.191 92.1746 106.946 91.9082C107.771 91.7335 108.63 91.8284 109.397 92.1789C112.211 93.2648 115.182 93.8887 118.194 94.0264C119.146 94.0568 120.097 93.9348 121.011 93.665C120.992 98.1189 121.557 102.449 121.077 109.253C120.241 111.023 119.365 112.715 118.463 114.258ZM115.893 128.929C117.49 129.182 119.126 128.889 120.538 128.098C121.949 127.308 123.056 126.064 123.68 124.567C123.762 124.4 123.906 124.271 124.081 124.208C124.256 124.145 124.449 124.153 124.618 124.229C124.788 124.306 124.921 124.446 124.99 124.619C125.059 124.793 125.058 124.987 124.987 125.159C124.234 126.924 122.922 128.39 121.255 129.331C119.588 130.272 117.658 130.635 115.764 130.363C115.67 130.355 115.578 130.328 115.495 130.284C115.411 130.24 115.336 130.18 115.276 130.107C115.215 130.034 115.169 129.95 115.141 129.859C115.113 129.768 115.103 129.673 115.111 129.579C115.12 129.484 115.147 129.392 115.191 129.308C115.234 129.224 115.294 129.149 115.367 129.088C115.44 129.028 115.524 128.982 115.614 128.953C115.704 128.925 115.799 128.915 115.893 128.923V128.929ZM75.1752 140.341C74.3702 138.149 74.3142 138.27 74.3142 138.1C75.0518 137.802 112.062 129.325 113.66 128.975C106.042 142.357 103.267 159.287 101.393 174.606C100.602 174.279 89.4061 169.723 84.5242 167.766C81.8121 158.721 78.7168 149.98 75.1752 140.341ZM43.3627 153.281C43.9367 153.483 106.231 177.929 108.294 179.001C110.194 180.729 129.134 225.448 142.82 249.993C141.203 249.05 139.525 248.215 137.797 247.496C133.806 245.561 88.6714 225.107 87.0355 224.25C86.1702 223.719 58.334 174.869 43.3627 153.281ZM217.935 213.486C220.63 213.973 223.124 215.241 225.11 217.133C225.976 218.001 226.521 219.139 226.653 220.36C226.785 221.581 226.498 222.81 225.837 223.844C224.355 225.805 222.372 227.327 220.097 228.249C207.108 233.669 198.555 234.536 186.701 241.827C182.712 244.316 179.277 247.601 176.607 251.479C173.937 255.356 172.09 259.743 171.181 264.367C171.113 264.928 170.991 265.482 170.818 266.02C170.649 266.366 170.395 266.662 170.079 266.881C169.763 267.1 169.396 267.234 169.014 267.27C158.389 269.735 147.514 270.951 136.609 270.893C123.004 270.717 109.541 268.093 96.8595 263.146V263.127L96.8494 263.088C93.5489 251.382 82.2828 244.63 74.0975 240.569C67.353 237.227 63.9736 236.409 60.4894 232.994C59.6922 232.205 59.1152 231.22 58.8161 230.137C58.5169 229.054 58.5061 227.911 58.7846 226.823C59.6664 224.548 61.3692 222.688 63.5546 221.615C68.5642 218.735 75.5756 218.023 82.399 219.599C83.0663 220.725 83.7364 221.857 84.408 222.947C84.8076 223.735 85.2995 224.473 85.8731 225.144C86.3007 225.467 86.7718 225.727 87.2723 225.916C138.634 249.335 138.248 249.012 143.442 251.969C144.523 252.583 144.854 253.197 146.139 252.386C148.34 250.998 156.56 245.352 195.292 224.141C202.028 220.453 201.442 220.843 203.242 219.77C203.173 219.891 203.096 220.006 203.011 220.116C202.661 220.735 203.18 221.32 203.791 220.692L203.813 220.703C204.711 219.613 205.548 218.474 206.321 217.292C206.378 217.26 206.427 217.216 206.465 217.164C206.525 217.08 208.337 214.572 209.102 213.499C212.017 212.909 215.019 212.904 217.935 213.486ZM247.352 150.621C233.162 172.07 222.845 191.301 209.468 210.813C235.637 148.247 234.962 149.72 237.993 144.105C249.473 149.396 248.357 148.817 248.502 148.951C248.182 149.549 247.797 150.109 247.355 150.623L247.352 150.621Z" fill="black"/>
</svg>
