<svg width="297" height="191" viewBox="0 0 297 191" fill="none" xmlns="http://www.w3.org/2000/svg">
<path d="M225.286 76.6693C226.628 77.3305 228.098 77.6914 229.593 77.7267C229.677 77.7171 229.758 77.6909 229.832 77.6496C229.906 77.6083 229.971 77.5527 230.023 77.4862C230.075 77.4196 230.113 77.3434 230.136 77.2619C230.158 77.1803 230.164 77.0952 230.153 77.0114C230.029 76.0317 228.925 76.8714 225.861 75.4564L226.017 74.3057C226.094 73.9791 225.706 73.4504 225.286 73.6059C224.866 73.7614 224.757 74.259 224.633 75.1609C224.508 76.0628 224.446 76.2494 225.286 76.6693ZM62.9749 81.0855C64.8461 80.5767 66.6034 79.7165 68.1531 78.5508C68.7596 78.0843 68.5574 76.9958 68.3863 76.3738C68.3376 76.2125 68.2311 76.0748 68.0871 75.9871C67.9432 75.8995 67.7719 75.8681 67.6062 75.8989C67.4405 75.9297 67.292 76.0206 67.1892 76.1542C67.0864 76.2877 67.0365 76.4545 67.049 76.6226C67.0786 76.9597 67.1411 77.293 67.2357 77.6178C63.5503 80.308 62.1197 79.6393 62.3374 80.7278C62.3858 80.8521 62.4758 80.9557 62.5921 81.0209C62.7084 81.0862 62.8437 81.109 62.9749 81.0855ZM58.7453 78.2087C61.8553 78.2087 60.798 76.3738 59.9583 76.6537L58.7609 76.8403C57.7346 71.9732 58.5587 70.9469 57.6724 70.9158C57.5387 70.9071 57.407 70.9511 57.3053 71.0382C57.2036 71.1254 57.14 71.2489 57.1282 71.3823C57.0183 73.305 57.1595 75.2339 57.548 77.1202C57.719 77.9599 58.03 78.2087 58.7453 78.2087ZM149.044 75.5341C149.931 75.5341 154.596 74.5234 155.389 74.399C156.555 74.1968 157.939 73.8392 158.032 72.5796C158.032 71.8021 157.472 70.9002 156.835 71.3667C156.702 71.4598 156.604 71.5943 156.556 71.7491C156.508 71.904 156.513 72.0703 156.57 72.222C156.804 72.8284 156.306 72.7818 148.795 74.4145C148.657 74.4572 148.54 74.5503 148.468 74.6753C148.395 74.8002 148.372 74.9479 148.404 75.089C148.435 75.2301 148.518 75.3542 148.637 75.4367C148.756 75.5191 148.901 75.5539 149.044 75.5341ZM46.7718 37.4677C47.1139 37.8565 47.9536 37.4677 47.7048 36.8768C46.1498 33.0826 43.2886 28.853 41.4848 24.6856C41.2049 24.017 40.6451 22.8818 40.1009 22.8196C40.0327 22.81 39.9633 22.8195 39.9001 22.8469C39.837 22.8744 39.7827 22.9188 39.7432 22.9751C39.4011 23.4416 39.8987 24.7323 40.132 25.2765C40.8473 26.816 44.3149 34.6532 46.7718 37.4677ZM97.1849 30.9056C97.2141 31.027 97.2745 31.1387 97.3602 31.2295C97.4458 31.3203 97.5538 31.3871 97.6733 31.4233C97.7928 31.4595 97.9197 31.4637 98.0413 31.4357C98.163 31.4076 98.2752 31.3482 98.3668 31.2633C99.6506 30.0943 100.817 28.8027 101.85 27.4069C106.515 42.3349 106.515 42.8636 107.246 42.8636C107.351 42.8607 107.453 42.8352 107.548 42.789C107.642 42.7428 107.725 42.6769 107.791 42.5958C107.857 42.5147 107.906 42.4202 107.932 42.3189C107.959 42.2175 107.963 42.1116 107.946 42.0083C106.204 36.5036 104.369 31.1233 102.783 25.6342C102.747 25.4978 102.672 25.3749 102.567 25.281C102.462 25.1871 102.331 25.1264 102.192 25.1064C102.052 25.0865 101.91 25.1082 101.783 25.1689C101.656 25.2296 101.549 25.3266 101.477 25.4476C100.584 26.8521 99.541 28.1556 98.3668 29.3351C97.4338 25.0744 95.2568 15.3401 95.2568 15.3401C95.2176 15.1834 95.1177 15.0486 94.9792 14.9655C94.8407 14.8824 94.6748 14.8577 94.5181 14.8969C94.3614 14.9361 94.2267 15.0359 94.1436 15.1744C94.0604 15.313 94.0358 15.4788 94.0749 15.6355C94.6036 18.0458 96.8584 29.8327 97.1849 30.9056ZM16.185 111.797C11.1779 109.402 6.71505 106.945 1.58355 104.239C0.588348 103.711 -0.0958518 105.53 1.45915 105.95C5.93934 108.746 10.7166 111.036 15.7029 112.776C16.3249 112.947 16.7603 112.139 16.185 111.797ZM20.1658 75.8918C20.2727 75.9863 20.406 76.046 20.5477 76.0626C20.6895 76.0793 20.8329 76.0523 20.9588 75.9851C21.9851 75.4875 20.6634 74.259 21.161 66.8728C33.772 82.0962 33.0723 81.7075 33.601 81.7075C33.7105 81.7143 33.8196 81.6897 33.9156 81.6366C34.0115 81.5834 34.0903 81.504 34.1426 81.4075C34.1949 81.3111 34.2185 81.2018 34.2107 81.0924C34.2029 80.983 34.164 80.8781 34.0986 80.79C32.1237 78.302 23.4779 67.557 21.1765 64.6336C21.09 64.5239 20.9738 64.4414 20.8418 64.3957C20.7098 64.35 20.5675 64.3431 20.4317 64.3759C20.2958 64.4086 20.1723 64.4795 20.0755 64.5803C19.9788 64.6811 19.913 64.8075 19.8859 64.9446C19.5698 67.7845 19.5177 70.6476 19.7304 73.4971C15.0654 69.3141 10.6025 64.8824 5.8909 60.8083C5.74826 60.6938 5.56983 60.6333 5.38698 60.6373C5.20414 60.6414 5.02858 60.7098 4.89117 60.8305C4.75376 60.9512 4.66329 61.1165 4.63568 61.2973C4.60807 61.4781 4.64508 61.6628 4.7402 61.819C6.5751 64.6647 16.9314 72.9528 20.1658 75.8918ZM142.824 18.2168C142.824 18.3694 142.885 18.5158 142.993 18.6237C143.101 18.7316 143.247 18.7922 143.4 18.7922C143.552 18.7922 143.698 18.7316 143.806 18.6237C143.914 18.5158 143.975 18.3694 143.975 18.2168C144.241 12.5052 144.002 6.78123 143.26 1.11183C143.244 0.962241 143.185 0.820508 143.09 0.703812C142.995 0.587115 142.868 0.500467 142.725 0.454377C142.581 0.408288 142.428 0.404737 142.283 0.444151C142.138 0.483565 142.007 0.564252 141.907 0.67643C141.207 1.57833 142.886 4.42398 142.824 18.2168ZM184.902 45.2272C196.736 25.261 196.098 26.2562 196.005 25.8985C195.741 24.9966 194.994 25.432 189.008 27.2358C190.563 21.7156 192.506 15.8221 193.797 10.2397C193.824 10.0592 193.782 9.87516 193.68 9.72383C193.578 9.5725 193.423 9.46481 193.246 9.42192C193.069 9.37904 192.882 9.40407 192.722 9.49209C192.562 9.58011 192.441 9.72476 192.382 9.89758C190.625 16.1176 188.883 22.1976 187.204 28.1688C187.177 28.2923 187.181 28.4206 187.217 28.5417C187.253 28.6628 187.32 28.7729 187.41 28.8614C187.5 28.95 187.611 29.0143 187.733 29.0482C187.854 29.082 187.983 29.0845 188.106 29.0552C188.106 29.0552 192.227 27.7801 193.89 27.2358L183.954 44.6985C183.895 44.8232 183.886 44.9656 183.928 45.0969C183.97 45.2282 184.061 45.3385 184.181 45.4057C184.302 45.4728 184.443 45.4917 184.577 45.4586C184.711 45.4254 184.827 45.3427 184.902 45.2272ZM296.085 90.8353C295.276 90.4466 280.317 99.7455 280.162 99.8543C279.618 100.243 280.162 101.207 280.722 100.912C281.623 100.507 295.914 92.5614 296.396 91.7061C296.433 91.6285 296.454 91.5444 296.458 91.4587C296.463 91.3729 296.45 91.2871 296.421 91.2062C296.392 91.1253 296.348 91.0509 296.29 90.9873C296.232 90.9236 296.163 90.872 296.085 90.8353ZM256.495 73.0617C256.495 73.0617 271.485 61.6324 274.284 59.4554C274.89 58.9734 274.284 57.9004 273.569 57.9782C270.747 58.0454 267.937 58.3629 265.172 58.9267C269.185 54.6447 272.74 49.9541 275.777 44.9317C276.29 44.092 275.046 43.2212 274.548 44.0765C271.122 49.6649 267.046 54.8273 262.404 59.4554C261.906 59.9375 262.217 61.1193 263.026 61.0104C265.77 60.3115 268.569 59.8434 271.392 59.6109C271.392 59.6109 259.511 69.1742 255.842 72.2064C255.78 72.3056 255.75 72.4212 255.755 72.5379C255.761 72.6545 255.802 72.7667 255.873 72.8596C255.944 72.9524 256.041 73.0214 256.152 73.0575C256.263 73.0936 256.383 73.0951 256.495 73.0617ZM235.051 28.0444C244.599 11.5925 246.263 9.19783 244.661 8.79353C243.977 8.62248 244.008 8.68468 233.978 27.4535C233.931 27.5919 233.934 27.7424 233.987 27.8786C234.04 28.0149 234.139 28.1282 234.267 28.1987C234.395 28.2692 234.544 28.2924 234.687 28.2642C234.831 28.236 234.959 28.1582 235.051 28.0444Z" fill="black"/>
<path d="M279.12 129.539C272.776 109.526 256.744 94.132 235.098 87.3211C235.083 86.9248 235.042 86.5299 234.974 86.1393C240.883 83.558 242.204 74.6789 240.898 66.9506C242.033 65.1001 245.05 55.5835 242.826 56.8897L238.768 59.2844C238.192 57.7294 237.524 56.2833 236.808 54.8527C236.964 52.3647 234.694 47.9174 230.697 45.0095C227.027 42.3349 220.714 39.9402 211.509 43.7655C204.324 46.7511 196.223 53.3443 194.994 62.9231C193.439 75.3631 197.56 81.3965 189.863 92.9502C181.358 89.0991 172.292 86.6319 163.008 85.6417C163.008 84.9448 162.962 84.2486 162.868 83.558C166.833 81.552 167.673 75.021 167.844 72.8907C172.509 68.8477 173.053 60.7928 169.399 60.6062C170.338 54.8356 170.698 48.9856 170.472 43.1435C170.27 39.5204 168.715 38.7118 168 38.5563C167.495 38.4608 166.973 38.5094 166.495 38.6964C166.016 38.8834 165.6 39.2012 165.294 39.6137C164.128 37.2345 161.889 37.53 160.629 39.3338C160.505 38.6936 160.183 38.1084 159.709 37.6611C159.235 37.2137 158.632 36.9268 157.985 36.8408C157.339 36.7549 156.682 36.8743 156.107 37.1821C155.532 37.4899 155.069 37.9706 154.782 38.5563C154.481 37.9143 153.995 37.3765 153.387 37.0111C152.779 36.6457 152.077 36.4694 151.368 36.5044C150.66 36.5394 149.978 36.7842 149.409 37.2077C148.84 37.6312 148.41 38.2143 148.173 38.8828C146.618 35.5085 142.653 36.286 141.767 39.707C140.601 37.079 137.413 37.0946 136.309 40.1424C133.401 37.9965 131.115 40.1424 130.649 43.6722C130.366 49.6744 130.616 55.6899 131.395 61.648C126.124 60.4662 130.229 72.8129 133.37 73.1084C133.914 77.7734 135.842 82.9049 139.59 84.1489C139.59 84.7709 139.497 85.4084 139.497 86.0304C129.442 87.636 119.767 91.0668 110.947 96.1535C106.095 92.7325 95.3034 88.083 84.9316 88.9383C83.0523 84.9678 81.6382 80.7935 80.7175 76.4983C80.0333 72.7507 81.7905 71.2735 81.7749 68.0391C83.7882 63.9817 84.2899 59.3398 83.19 54.946C78.2917 39.396 48.7001 45.305 49.5398 62.3789C49.6486 64.3226 49.8197 66.2664 49.9907 67.7747C46.3365 68.8788 46.8807 69.1431 47.8915 73.5904C48.4357 76.0162 49.0577 78.0222 51.6079 77.4935C52.7742 82.5472 55.7131 90.6177 62.6484 90.6177C63.0683 90.6177 62.6484 90.3533 63.0372 92.9657C45.6367 100.539 23.789 114.736 18.1288 139.616C16.7604 145.618 15.9362 154.139 19.8548 160.577C24.1622 167.746 31.7817 168.197 37.2553 167.839C35.974 174.879 35.5615 182.049 36.0268 189.189C36.0296 189.289 36.0598 189.386 36.1141 189.47C36.1683 189.553 36.2446 189.621 36.3345 189.664C36.4244 189.707 36.5244 189.725 36.6237 189.715C36.7231 189.706 36.8178 189.669 36.8976 189.609C37.7373 189.111 36.089 188.583 38.717 167.73C53.3651 166.377 67.329 160.08 80.2355 153.455C82.3658 155.01 84.4806 156.565 86.6732 157.965C88.4758 161.61 91.2382 164.694 94.6631 166.886C98.088 169.078 102.046 170.295 106.111 170.405C105.722 176.951 105.722 183.514 106.111 190.06C106.116 190.139 106.138 190.216 106.174 190.287C106.211 190.357 106.261 190.42 106.322 190.471C106.383 190.521 106.453 190.559 106.529 190.582C106.605 190.605 106.685 190.613 106.764 190.604C108.101 190.48 106.375 189.811 107.432 170.389C120.37 170.389 130.991 161.946 141.642 155.492C154.176 161.23 184.903 171.913 201.152 168.834C201.899 175.458 201.79 181.741 202.427 188.147C202.448 188.262 202.508 188.366 202.598 188.441C202.687 188.516 202.8 188.557 202.917 188.557C203.034 188.557 203.147 188.516 203.237 188.441C203.326 188.366 203.386 188.262 203.407 188.147C203.815 181.601 203.549 175.03 202.614 168.539C213.888 165.864 220.807 157.918 222.642 145.571C223.389 145.074 224.197 144.514 225.037 143.876C234.663 147.717 254.582 157.063 264.316 157.405C263.865 164.636 263.228 172.271 263.119 179.766C263.141 179.892 263.206 180.007 263.305 180.09C263.403 180.173 263.527 180.218 263.655 180.218C263.784 180.218 263.908 180.173 264.006 180.09C264.105 180.007 264.17 179.892 264.192 179.766C264.41 177.698 265.825 160.048 265.747 157.358C281.328 157.001 283.785 144.25 279.12 129.539ZM168.155 63.0786C168.575 62.5188 168.808 61.8657 169.415 62.0523C171.592 62.6899 169.85 68.1013 168.031 70.5115C168.186 68.0391 168.233 65.5355 168.155 63.0786ZM131.037 63.0786C131.535 63.0786 131.473 63.2963 132.592 63.514L133.214 71.1957C130.913 69.0654 129.249 63.1097 131.037 63.1097V63.0786ZM239.079 61.5236C239.145 61.3051 239.295 61.1216 239.496 61.0137C239.697 60.9058 239.933 60.8823 240.152 60.9483C240.37 61.0143 240.554 61.1644 240.662 61.3656C240.769 61.5668 240.793 61.8027 240.727 62.0212C240.183 63.9494 239.763 65.3489 239.405 66.6862C239.313 66.8526 239.184 66.9954 239.027 67.1033C238.871 67.2113 238.692 67.2814 238.503 67.3082C237.135 67.3549 238.597 62.9231 239.079 61.4925V61.5236ZM212.908 67.7436C213.794 67.075 214.867 67.9302 215.038 67.9458C216.5 68.8788 218.148 67.5259 217.729 67.1372L217.418 66.8884C216.267 65.9865 213.903 64.1205 214.401 62.8454C214.774 61.8813 216.298 62.0212 217.293 61.9746C217.329 61.9735 217.363 61.9644 217.394 61.948C217.426 61.9316 217.453 61.9083 217.474 61.8798C217.495 61.8513 217.509 61.8185 217.515 61.7837C217.522 61.749 217.52 61.7132 217.511 61.6791C217.355 61.1815 217.169 60.6839 216.982 60.1241C222.859 57.2096 229.302 55.6173 235.86 55.4591C236.529 57.0141 237.104 58.4914 237.617 59.9531C235.673 61.0571 233.465 62.27 232.952 64.4781C232.49 64.4207 232.021 64.4678 231.58 64.6158C231.138 64.7638 230.736 65.009 230.402 65.3334C227.96 62.3944 217.853 62.6432 215.816 62.721C213.188 62.8298 220.123 68.1324 222.036 69.6252C228.458 74.6167 232.657 71.1802 231.055 66.624C231.279 66.3487 231.575 66.1396 231.909 66.0191C232.243 65.8986 232.603 65.8712 232.952 65.9398C233.01 66.2353 233.104 66.5225 233.232 66.7951C233.155 66.7567 233.069 66.7368 232.983 66.7368C232.897 66.7368 232.812 66.7567 232.734 66.7951C232.097 67.1994 232.734 67.7436 234.196 70.3405C234.016 70.5239 233.823 70.6953 233.621 70.8536C233.03 71.289 233.543 73.1861 235.518 70.8536C235.813 70.496 235.253 69.4541 234.631 68.5367C235.382 69.0483 236.282 69.2954 237.188 69.2391C238.095 69.1828 238.957 68.8262 239.639 68.2257C240.318 72.4005 239.933 76.6793 238.519 80.6657C236.964 84.4754 233.061 84.6931 233.854 86.1393C234.059 91.2661 233.641 96.3988 232.61 101.425C228.614 100.554 220.745 90.8043 217.604 86.2792C217.93 82.4982 217.442 78.6912 216.174 75.1143C215.132 73.3105 213.064 72.4864 212.519 70.4493C212.307 69.9951 212.231 69.489 212.3 68.9923C212.369 68.4956 212.58 68.0295 212.908 67.6503V67.7436ZM236.482 65.1468C236.311 65.6599 236.202 66.3752 235.642 66.3752C235.082 66.3752 234.802 65.7221 234.865 65.1623C234.927 64.6025 235.082 63.3119 235.673 62.9698C235.787 62.9136 235.912 62.8843 236.039 62.8843C236.165 62.8843 236.291 62.9136 236.404 62.9698C237.135 63.1719 236.746 64.2604 236.482 65.0535V65.1468ZM228.1 68.7233C227.929 69.1431 227.758 69.9051 227.261 70.1383C227.174 70.1809 227.078 70.2031 226.981 70.2031C226.884 70.2031 226.788 70.1809 226.701 70.1383C225.768 69.7962 226.794 66.3286 227.634 65.6599C227.707 65.5853 227.798 65.5304 227.898 65.5002C227.998 65.47 228.104 65.4656 228.207 65.4873C228.309 65.509 228.404 65.5561 228.484 65.6243C228.563 65.6926 228.624 65.7797 228.66 65.8776C228.987 66.5929 228.194 68.3967 228.1 68.63V68.7233ZM224.695 67.2149C224.493 67.6192 224.4 67.9924 223.871 67.9924C223.746 68.0011 223.622 67.979 223.508 67.9283C223.394 67.8776 223.294 67.7996 223.218 67.7014C223.141 67.6032 223.089 67.4876 223.068 67.3648C223.046 67.242 223.055 67.1158 223.093 66.9972C223.264 66.4841 223.451 65.3178 224.073 65.0068C224.172 64.9613 224.278 64.9365 224.387 64.9339C224.495 64.9313 224.603 64.9511 224.704 64.9919C224.804 65.0327 224.896 65.0937 224.972 65.1712C225.048 65.2487 225.107 65.3409 225.146 65.4422C225.364 65.9554 225.006 66.6551 224.695 67.2149ZM216.92 87.15C221.336 94.7695 232.968 105.81 233.869 102.109C234.887 97.7159 235.357 93.2137 235.269 88.705C256.572 96.2312 271.034 110.024 277.332 128.637C272.773 126.462 267.764 125.396 262.715 125.527C262.497 120.411 255.484 110.522 252.794 107.552C252.25 106.945 251.239 107.723 251.83 108.329C255.863 112.896 258.95 118.219 260.911 123.988C253.291 118.25 237.944 110.242 216.904 116.835C211.446 107.518 203.476 99.9255 193.906 94.925C200.793 90.4212 208.713 87.7455 216.92 87.15ZM135.827 52.0692C145.178 49.5169 155.003 49.2343 164.485 51.2451C164.326 53.8803 164.409 56.5246 164.734 59.1445H164.454C163.164 53.2044 154.891 51.3695 152.108 57.5895C150.686 57.1072 149.144 57.1072 147.722 57.5895C145.032 51.9915 137.242 53.7953 135.811 59.3311H135.516C135.843 56.9252 135.947 54.4943 135.827 52.0692ZM156.975 64.8669C157.255 64.0738 159.774 58.1959 161.406 58.0249C161.542 58.0232 161.677 58.0539 161.798 58.1144C161.92 58.175 162.025 58.2636 162.106 58.3731C162.187 58.4825 162.24 58.6096 162.262 58.7437C162.283 58.8779 162.273 59.0153 162.231 59.1445C160.843 61.1219 159.605 63.2011 158.53 65.3645C158.141 66.3286 156.617 65.9554 156.975 64.8669ZM154.72 62.6899C154.533 63.1564 153.694 63.4363 153.398 62.892C153.103 62.3478 153.818 60.2796 155.84 57.2474C156.353 56.4854 156.835 56.1122 157.255 56.1744C157.391 56.2135 157.516 56.2853 157.619 56.3838C157.721 56.4822 157.798 56.6042 157.842 56.7392C157.887 56.8742 157.898 57.0179 157.874 57.158C157.85 57.2981 157.792 57.4302 157.706 57.5428C156.522 59.1422 155.521 60.8686 154.72 62.6899ZM141.191 65.2712C141.86 63.8095 142.607 62.3322 143.322 60.8861C143.398 60.7466 143.511 60.6302 143.647 60.5491C143.784 60.4681 143.94 60.4253 144.099 60.4253C144.258 60.4253 144.414 60.4681 144.551 60.5491C144.688 60.6302 144.8 60.7466 144.877 60.8861C144.974 61.0337 145.027 61.2067 145.027 61.3837C145.027 61.5606 144.974 61.7337 144.877 61.8813C144.193 63.2341 143.493 64.6492 142.746 66.0176C142.156 66.7951 140.725 66.2042 141.191 65.2712ZM139.31 63.3119L139.217 63.4207C138.735 64.1205 137.522 63.6695 137.848 62.7832C138.746 60.394 139.893 58.1059 141.269 55.9567C141.938 55.1481 143.291 55.8479 142.824 56.7964C141.72 59.0045 140.367 61.0727 139.31 63.3119ZM133.759 63.4518C134.754 63.032 135.034 61.8968 135.314 60.9172L135.64 60.8239C135.559 61.9027 135.691 62.9869 136.03 64.0143C136.369 65.0418 136.908 65.9921 137.615 66.8106C138.454 67.6343 139.505 68.2087 140.651 68.4699C141.797 68.731 142.993 68.6686 144.106 68.2897C145.218 67.9107 146.204 67.23 146.952 66.3236C147.701 65.4172 148.183 64.3207 148.344 63.1564C148.184 64.6539 148.116 66.16 148.142 67.6659C148.142 68.5989 147.925 69.7651 149.075 69.8429H150.63C151.439 69.8429 151.657 68.4434 150.724 68.4278H149.573C149.482 65.6573 149.633 62.8841 150.024 60.1397C150.133 59.3777 149.029 59.2689 148.873 59.9842C148.189 63.3274 148.873 61.4148 148.267 58.9423C149.352 58.553 150.54 58.553 151.626 58.9423C151.283 60.189 151.216 61.4952 151.428 62.7705C151.64 64.0458 152.126 65.2598 152.854 66.3286C153.408 67.0464 154.11 67.6368 154.912 68.0597C155.714 68.4827 156.598 68.7282 157.504 68.7799C158.409 68.8315 159.315 68.6879 160.16 68.3589C161.005 68.0299 161.77 67.5231 162.402 66.8728C163.929 65.1681 164.742 62.9408 164.672 60.6528H164.967C165.154 62.0057 165.434 63.8717 166.865 63.7628C166.709 69.0809 167.176 78.1932 162.961 81.5209C162.417 81.9563 161.795 82.4539 161.717 82.9515C161.523 84.5993 161.523 86.2642 161.717 87.912C162.168 92.2193 154.627 100.741 150.724 104.379C143.197 94.1475 141.036 93.1368 141.052 84.1644C141.052 83.2625 140.943 83.1226 140.321 82.8116C134.023 79.7638 134.598 70.978 133.759 63.4518ZM139.574 87.3988C139.745 92.1727 143.493 98.6259 150.102 105.577C151.439 107.318 163.257 92.8102 163.024 89.6691V87.0412C194.855 90.7887 217.666 109.107 221.305 133.8C208.088 131.203 191.387 134.251 188.557 134.795C187.343 127.062 185.056 119.535 181.761 112.434C181.706 112.296 181.597 112.186 181.46 112.127C181.323 112.069 181.169 112.068 181.031 112.123C180.892 112.179 180.782 112.287 180.724 112.424C180.665 112.561 180.664 112.716 180.72 112.854C183.579 119.863 185.664 127.163 186.94 134.624C178.76 126.009 166.32 122.184 148.982 122.962C138.546 123.446 128.179 124.919 118.022 127.362C118.834 122.62 120.77 118.142 123.667 114.3C123.73 114.185 123.749 114.05 123.721 113.921C123.692 113.792 123.617 113.678 123.511 113.6C123.404 113.522 123.273 113.485 123.141 113.497C123.01 113.508 122.887 113.567 122.796 113.663C119.528 117.7 117.383 122.527 116.576 127.658C105.302 130.362 94.3531 134.278 83.9208 139.336C85.3514 108.873 113.512 92.5459 139.574 87.3988ZM72.1339 58.6002C72.118 60.0767 72.2063 61.5524 72.3983 63.0164C66.8003 63.1564 57.9057 65.3334 51.2814 67.386C51.1103 66.0176 50.7216 63.5296 50.706 62.0523C57.3714 58.8756 64.8081 57.6775 72.1339 58.6002ZM67.189 66.9506C64.079 72.2376 64.7477 73.1706 63.7058 73.1706C63.5889 73.1777 63.472 73.1566 63.3649 73.1091C63.2579 73.0616 63.1638 72.9891 63.0907 72.8976C63.0175 72.8062 62.9674 72.6985 62.9445 72.5836C62.9217 72.4688 62.9268 72.3501 62.9594 72.2376C64.3745 66.8884 65.7273 65.8932 66.4115 65.7688C66.5607 65.7384 66.7155 65.7534 66.856 65.8118C66.9966 65.8703 67.1164 65.9695 67.2001 66.0966C67.2838 66.2238 67.3274 66.3731 67.3254 66.5253C67.3235 66.6775 67.2759 66.8256 67.189 66.9506ZM62.3841 68.1168C61.8087 69.0654 61.6688 70.3871 60.8291 70.185C59.9894 69.9828 60.5958 68.0857 61.0934 67.075C61.591 66.0642 62.0264 66.0487 62.3219 66.1264C62.4884 66.1717 62.6364 66.2681 62.7452 66.402C62.854 66.5359 62.9181 66.7006 62.9283 66.8728C62.8674 67.3304 62.6787 67.7615 62.3841 68.1168ZM50.8149 71.2268C50.6438 71.6311 50.6283 72.8751 49.7886 72.8751C49.6251 72.8815 49.4643 72.8328 49.3318 72.737C49.1993 72.6411 49.1028 72.5036 49.0577 72.3464C48.9754 71.2586 49.3214 70.1817 50.0218 69.3453C50.1662 69.2162 50.3479 69.1361 50.5406 69.1166C50.7333 69.097 50.9273 69.139 51.0948 69.2364C51.468 69.4852 51.3902 70.1383 50.8149 71.1802V71.2268ZM51.3902 74.85C52.8053 69.7651 53.6139 69.0187 54.0959 68.9099C54.195 68.887 54.2985 68.8924 54.3947 68.9254C54.4909 68.9584 54.5759 69.0176 54.6402 69.0965C54.8515 69.3415 54.9577 69.66 54.9356 69.9828L52.883 75.2854C52.8191 75.4833 52.6791 75.6478 52.494 75.7426C52.3088 75.8374 52.0935 75.8547 51.8956 75.7908C51.6976 75.7268 51.5332 75.5869 51.4384 75.4017C51.3436 75.2165 51.3263 75.0013 51.3902 74.8033V74.85ZM52.9452 77.198C55.9308 76.3272 56.8949 76.576 56.5684 72.0354C56.4595 70.7448 56.2107 67.8058 57.5169 67.8525C58.5743 67.8525 58.6054 72.7663 60.176 74.2902C61.7465 75.8141 63.7836 74.7411 65.4941 74.2902C70.1591 73.0151 69.1328 71.0247 68.7907 64.8513L72.7093 64.5403C74.4664 73.6526 76.83 66.8262 78.4161 65.7999C79.4269 65.1623 80.2977 66.5618 80.4843 67.6348C80.8419 69.9362 78.9293 72.4553 79.3336 75.8296C80.2499 80.7136 81.819 85.4522 83.9986 89.9179C80.5931 96.3867 70.8122 102.358 66.4582 104.722C64.6233 98.0661 64.4678 89.327 63.3482 89.3581C58.1856 89.3892 54.7957 85.4862 52.883 77.1514L52.9452 77.198ZM63.1771 94.4585C63.457 96.8066 64.6077 106.899 66.2871 106.059C70.5167 104.068 83.3921 95.6092 85.227 90.1667C87.9483 90.7887 96.4386 89.1404 109.625 97.0865C99.8943 102.899 92.0861 111.442 87.1708 121.655C74.5908 120.1 59.0253 118.157 45.9477 125.061C49.9441 115.638 52.3388 114.705 51.2036 113.958C51.1448 113.918 51.0786 113.89 51.0087 113.876C50.9389 113.862 50.867 113.863 50.7973 113.877C50.7276 113.892 50.6615 113.92 50.6031 113.961C50.5447 114.001 50.495 114.053 50.4572 114.114C50.0529 114.72 44.3772 124.097 44.2372 126.009C42.0447 127.347 37.3641 130.768 35.9646 133.458C30.2479 133.569 24.6772 135.283 19.8859 138.403C24.6131 120.1 39.5567 104.908 63.1149 94.4119L63.1771 94.4585ZM22.856 162.365C16.9159 156.145 18.191 145.742 19.4194 140.036C34.5962 130.068 54.6557 134.329 79.0692 152.724C70.8588 156.239 34.985 174.945 22.856 162.365ZM37.5352 133.427C49.8819 119.758 67.7333 120.629 86.5332 122.946C81.7127 134.064 81.2929 145.805 85.3203 155.383C71.3253 144.903 54.7957 133.38 37.5352 133.38V133.427ZM107.324 169.192C92.0068 169.192 83.7809 155.741 83.9986 140.813C105.769 131.032 124.786 126.025 145.623 124.579C164.656 123.257 177.47 126.725 185.867 135.464C144.846 144.654 127.912 169.145 107.324 169.145V169.192ZM201.37 167.481C186.147 170.918 160.94 161.93 143.026 154.761C171.576 137.905 197.265 131.545 221.507 135.324C223.42 152.693 216.267 164.107 201.37 167.481ZM222.938 143.939C223.745 134.947 221.844 125.919 217.48 118.017C234.18 113.694 248.284 116.213 260.538 125.698C244.443 126.896 228.225 139.46 222.922 143.939H222.938ZM265.234 156.021C255.717 156.021 235.689 146.691 226.468 142.928C236.326 135.464 248.004 127.549 262.062 126.989C267.553 126.65 273.03 127.851 277.876 130.457C282.043 144.514 279.96 155.928 265.218 156.021H265.234Z" fill="black"/>
</svg>
